<?xml version="1.0" encoding="UTF-8"?>
<svg id="Capa_1" data-name="Capa 1" xmlns="http://www.w3.org/2000/svg" viewBox="0 0 280.3 58.29">
  <defs>
    <style>
      .cls-1 {
        fill: #37465a;
        stroke-width: 0px;
      }
    </style>
  </defs>
  <g id="_5TYzU2" data-name="5TYzU2">
    <g>
      <path class="cls-1" d="M280.3,57c-3.87.98-7.68.84-11.29-.92-3.76-1.84-5.18-5.24-5.57-9.12-.47-4.65-.13-9.32-.19-13.97-.04-2.74-.04-5.48,0-8.22.02-.99-.32-1.31-1.32-1.3-4.51.04-9.03.07-13.54-.01-1.42-.03-1.31.75-1.3,1.66,0,10.02-.03,20.05.04,30.07.01,1.57-.36,2.23-2.02,2.03-1.1-.13-2.24-.13-3.33,0-1.66.2-2.18-.32-2.16-2.07.09-9.73.05-19.47.04-29.2,0-2.8.31-2.45-2.39-2.46-4.09-.02-4.09,0-4.09-4.04q0-3.01,3-3.01c3.42,0,3.35,0,3.71-3.4.2-1.88.57-3.76,1.28-5.52.66-1.63,1.62-3.13,2.93-4.32.91-.83,2-1.45,3.12-1.94s2.43-1.01,3.7-1.2c.08-.01.16-.02.24-.03.84-.1,1.69-.03,2.54,0,.9.02,1.8.02,2.7,0,.04.65.03,1.31.04,1.97s.13,1.36.13,2.03c.23,1.82-.42,2.34-2.26,2.28-3.59-.13-5.61,1.34-6.53,4.36-.48,1.58-.55,3.2-.57,4.83-.01.79.31.98,1.04.97,4.62-.02,9.25-.03,13.87,0,.93,0,1.22-.31,1.2-1.2-.04-1.92.08-3.85-.04-5.76-.1-1.5.59-1.65,1.77-1.38,3.12.71,5.43,3.44,5.53,6.8.04,1.22.37,1.6,1.6,1.55,2.22-.09,4.45.01,6.67-.05.91-.02,1.24.24,1.2,1.17-.07,1.57-.06,3.14,0,4.71.04.91-.26,1.22-1.19,1.2-2.22-.06-4.45.05-6.67-.04-1.23-.05-1.6.34-1.59,1.56.06,5.88,0,11.76.04,17.64,0,1.33.13,2.68.39,3.98.54,2.63,2.06,4.03,4.73,4.04,2.08,0,3.58.67,4.57,2.47v3.85Z"/>
      <path class="cls-1" d="M6.44,16.23c.19-2.96.36-5.91,1.52-8.71,1.05-2.52,2.79-4.69,5.21-5.98C15.72.19,18.45-.07,21.26-.02c.36,0,.72.01,1.08.02.25,0,.65-.08.84.12.28.3.06.87.06,1.22,0,1.24.02,2.48.06,3.72.03.88-.19,1.2-1.18,1.16-5.86-.21-8.97,3.42-8.19,9.41.1.8.58.73,1.11.73,2.28,0,4.57.04,6.85-.02.98-.02,1.51.1,1.43,1.29-.13,1.85.63,4.29-.29,5.42-.96,1.17-3.51.33-5.36.35-3.74.06-3.74.02-3.74,3.67,0,7.46.01,14.91,0,22.37,0,3.67-2,6.42-5.28,7.37-1.91.55-2.11.41-2.11-1.54-.01-10.6-.03-21.2-.04-31.81.23-2.42.32-4.83-.04-7.25Z"/>
      <path class="cls-1" d="M103.11,20.24c0-4.63-.05-8.87.01-13.12.06-4.14,2.44-6.29,6.58-6.15.8.03,1.12.15,1.12,1.05-.04,12.05.25,24.12-.15,36.16-.38,11.52-9.8,20.4-21.83,20-12.81-.42-21.68-10.08-20.97-22.63.45-8.06,4.33-14.22,11.66-17.8,7.64-3.73,15.17-3.03,22.32,1.57.33.21.63.46,1.26.92ZM103.11,36.77c0-8.25-5.79-14.29-13.73-14.33-8-.03-13.88,6.04-13.92,14.37-.04,8.19,5.85,14.3,13.78,14.29,8.11,0,13.87-5.95,13.86-14.34Z"/>
      <path class="cls-1" d="M48.19,40.05c-4.92,0-9.85.04-14.77-.03-1.29-.02-1.42.34-1.09,1.5,1.55,5.42,6.07,9.06,11.91,9.53,3.23.26,6.27-.29,9.21-1.66,2.5-1.17,5.12-1.48,7.87-.93,1.2.24,1.23.71.82,1.66-1.44,3.3-4.29,5.02-7.38,6.35-10.56,4.55-27.21.6-30.34-15.38-2.62-13.4,7.19-25.74,20.53-25.64,11.43.08,20.03,9.37,19.78,21.37q-.07,3.24-3.36,3.24c-4.4,0-8.79,0-13.19,0ZM44.35,33.62c3.75,0,7.5-.05,11.25.03,1.19.02,1.36-.33,1.1-1.4-.56-2.23-1.37-4.34-2.96-6.04-3.59-3.84-8.05-4.53-12.89-3.14-4.86,1.39-7.44,4.95-8.66,9.67-.32,1.24.56.87,1.09.88,3.69.02,7.38.01,11.07.01Z"/>
      <path class="cls-1" d="M137.87,40.05c-4.92,0-9.84.04-14.76-.03-1.36-.02-1.55.34-1.19,1.6,1.53,5.31,6.06,8.96,11.8,9.43,3.16.26,6.18-.18,9.05-1.56,2.21-1.07,4.54-1.47,6.99-1.23,2.43.25,2.7.76,1.43,2.88-.63,1.06-1.46,1.95-2.44,2.72-6.62,5.25-17.2,5.81-24.99,1.33-7.2-4.14-11.25-12.85-9.94-21.35,1.46-9.42,7.27-15.9,16.08-17.92,11.64-2.67,23.03,5.49,24.17,17.3.17,1.74.18,3.48.12,5.23-.04,1.27-.42,1.64-1.73,1.62-4.86-.09-9.73-.04-14.59-.04ZM133.92,33.62c3.63,0,7.26-.08,10.88.04,1.55.05,1.72-.44,1.38-1.77-1.54-6-5.84-9.47-11.81-9.44-6.21.03-11.17,3.97-12.57,9.91-.24,1.03,0,1.31,1.05,1.29,3.69-.05,7.37-.02,11.06-.02Z"/>
      <path class="cls-1" d="M189.12,35.74c.38-11.49,10.08-21.23,23.07-20.19,12.17.97,20.82,11.15,19.84,22.75-1.04,12.39-11.06,20.34-22.41,19.91-12.27-.47-21.19-10.65-20.49-22.46ZM224.45,36.82c-.04-8.31-5.93-14.38-13.94-14.38-7.94,0-13.96,6.33-13.83,14.51.13,8.26,5.97,14.18,13.97,14.17,7.91,0,13.84-6.16,13.81-14.31Z"/>
      <path class="cls-1" d="M172.02,15.42c5.18.33,10.13,1.92,12.82,7.46.97,1.99.87,2.13-1.39,2.39-2.66.31-5.09-.37-7.37-1.73-2.55-1.52-5.25-1.87-8.09-.94-2.5.82-4.09,2.81-4.08,5.1,0,2.04,1.23,3.62,3.87,4.37,2.69.77,5.48,1.19,8.2,1.84,1.47.35,2.91.84,4.35,1.33,7.99,2.73,8.3,9.67,6.06,15.17-1.18,2.89-3.35,4.94-6.23,6.08-6.72,2.66-13.39,2.36-19.83-.94-2.35-1.21-4.03-3.13-5.04-5.62-.35-.87-.18-1.23.77-1.44,3.06-.66,5.95-.24,8.66,1.24,3.31,1.81,6.79,2.01,10.38,1.23.84-.18,1.66-.58,2.41-1.02,1.71-1.03,2.42-2.63,2.32-4.58-.09-1.89-1.34-2.89-2.94-3.55-2.68-1.1-5.57-1.28-8.36-1.92-1.36-.31-2.74-.63-4.06-1.06-4.18-1.36-7.25-3.87-7.89-8.44-.69-4.94.83-9.09,5.01-12.07,2.96-2.12,6.37-2.81,10.43-2.91Z"/>
      <path class="cls-1" d="M6.44,16.23c.36,2.41.27,4.83.04,7.25-1.75-.02-3.5-.07-5.25-.03-.86.02-1.28-.15-1.23-1.13.08-1.62.07-3.25,0-4.88-.03-.9.26-1.23,1.18-1.2,1.75.05,3.5,0,5.26,0Z"/>
    </g>
  </g>
</svg>