<?xml version="1.0" encoding="UTF-8"?>
<svg id="Capa_1" data-name="Capa 1" xmlns="http://www.w3.org/2000/svg" viewBox="0 0 358.09 46.66">
  <defs>
    <style>
      .cls-1 {
        fill: #37465a;
        stroke-width: 0px;
      }
    </style>
  </defs>
  <g id="_3673bm" data-name="3673bm">
    <g>
      <path class="cls-1" d="M117.08,46.66c-.84-.35-1.75-.34-2.62-.54-7.23-1.64-12.06-7.15-12.74-14.49-.3-3.24-.14-6.42,1.1-9.47,2.02-5,5.8-8.01,10.99-9.18,6.78-1.53,12.97-.27,18.37,4.25.07.06.15.09.24.15.18-.26.1-.53.1-.78,0-5.07.01-10.14,0-15.21,0-.51.08-.74.67-.78,2.5-.16,5-.38,7.49-.6.37-.03.48.09.45.43,0,.12,0,.24,0,.36,0,14.78,0,29.56.01,44.34,0,.63-.12.85-.81.84-2.15-.04-4.3-.02-6.45.01-.51,0-.64-.14-.63-.64.03-1.42.01-2.84.01-4.38-.87.81-1.64,1.55-2.51,2.17-2.82,2.03-6.01,3.03-9.44,3.39-.17.02-.39-.08-.51.14h-3.73ZM132.61,29.57c-.04-4.16-1.39-7.73-4.81-10.32-4.08-3.09-11.22-3.37-15.06,2.53-2.25,3.45-2.65,7.23-1.81,11.16,1.18,5.51,5.42,9.54,11.59,8.88,2.44-.26,4.62-1.16,6.39-2.88,2.64-2.56,3.62-5.78,3.69-9.37Z"/>
      <path class="cls-1" d="M299.2,46.66c-.82-.36-1.71-.27-2.57-.41-2.82-.49-5.51-1.34-7.98-2.8-4.35-2.57-7.01-6.31-7.73-11.32-.61-4.24.06-8.25,2.52-11.86,1.89-2.78,4.47-4.76,7.59-5.96,6.99-2.67,14.04-2.75,21.01.05,6.59,2.65,10.21,8.29,10.13,15.36-.09,7.09-4.18,12.78-10.91,15.22-2.32.84-4.71,1.36-7.17,1.57-.15.01-.34-.05-.44.14h-.72c-1-.23-2.01-.23-3.01,0h-.72ZM289.73,28.34c0,3.71.52,5.89,1.83,8.05,1.98,3.27,4.82,5.43,8.7,5.82,4.9.48,8.57-1.7,11.05-5.8,2.14-3.54,2.28-7.41,1.19-11.31-2.35-8.39-11.59-10.61-17.54-6.3-3.58,2.6-5.15,6.23-5.22,9.55Z"/>
      <path class="cls-1" d="M167.37,46.66c-.98-.38-2.03-.33-3.04-.56-3.11-.72-6-1.9-8.45-3.98-3.3-2.8-5.08-6.38-5.6-10.66-.55-4.52.51-8.55,3.43-12.05,3.15-3.75,7.22-5.94,12.03-6.73,4.33-.71,8.58-.31,12.59,1.57,4.62,2.17,7.65,5.72,8.87,10.72.19.77.26,1.55.27,2.33.02,2.15-.97,3.17-3.13,3.18-1.84.02-3.68,0-5.52,0-6.47,0-12.94,0-19.41-.01-.57,0-.77.06-.66.72.82,4.75,3.51,7.96,7.95,9.75,2.79,1.13,5.7,1.29,8.65,1.07,3.48-.26,6.79-1.23,10.01-2.54.44-.18.62-.11.79.32.31.85.66,1.68,1.04,2.5.21.44.16.64-.32.85-4.42,1.9-9,3.12-13.82,3.36-.18,0-.39-.08-.52.14h-5.16ZM167.73,26.38s0-.01,0-.02c2.79,0,5.58,0,8.37,0,.69,0,1.38-.12,2.02-.39.82-.35,1.17-.9,1.14-1.78-.05-1.3-.51-2.46-1.24-3.51-2.22-3.21-7.01-4.86-11.17-3.89-4.63,1.08-7.28,4.73-8.08,9-.1.54.1.62.58.62,2.79-.02,5.58-.01,8.37-.01Z"/>
      <path class="cls-1" d="M358.09,12.81c-.63,1.17-1.35,2.3-1.85,3.52-.46,1.13-1.14,1.47-2.32,1.38-1.62-.12-3.23.11-4.82.49-1.68.4-3.2,1.1-4.51,2.22-2.35,2-4.41,4.21-5.23,7.31-.4,1.53-.59,3.08-.59,4.66,0,4.28-.01,8.57.01,12.85,0,.61-.17.75-.76.74-2.39-.03-4.78-.03-7.16,0-.49,0-.71-.07-.71-.65.02-10.55.02-21.09,0-31.64,0-.48.14-.67.62-.71,2.45-.19,4.9-.38,7.35-.61.59-.06.66.17.65.67-.02,2.3-.01,4.6-.01,7.08.76-1.02,1.4-1.92,2.18-2.7,4-3.99,8.89-5.45,14.44-4.99.9.07,1.8.15,2.71.22v.14Z"/>
      <path class="cls-1" d="M299.92,46.66c1-.23,2.01-.23,3.01,0h-3.01Z"/>
      <path class="cls-1" d="M223.82,40.64c-1.25,1.38-2.51,2.49-3.96,3.39-2.53,1.56-5.31,2.35-8.26,2.5-3.34.17-6.62-.09-9.8-1.25-8.13-2.96-8.07-12.62-3.07-16.76,2.25-1.86,4.86-2.81,7.66-3.27,3.11-.51,6.28-.48,9.41-.73,2.28-.18,4.57-.29,6.86-.42.25-.01.47-.01.46-.37-.03-.9.05-1.82-.05-2.71-.2-1.74-1.41-2.85-3.51-3.36-1.96-.47-3.96-.56-5.97-.57-4.66-.02-9.3.32-13.92.9-.45.06-.64-.04-.78-.45-.3-.85-.62-1.7-1-2.52-.25-.55-.05-.67.44-.77,2.68-.58,5.39-.99,8.11-1.32,4.42-.53,8.85-.76,13.29-.4,2.78.23,5.54.61,8.06,1.98,2.64,1.43,3.86,3.66,3.89,6.58.03,3.64.01,7.28.01,10.93,0,4.38-.01,8.76.01,13.14,0,.59-.09.82-.76.8-2.15-.05-4.3-.04-6.45,0-.58.01-.71-.17-.7-.72.04-1.47.01-2.95.01-4.6ZM223.14,31.67c0-1.05-.02-2.09,0-3.14.01-.45-.1-.62-.59-.58-4.04.3-8.1.49-12.13.9-2.8.29-4.99,1.7-5.84,4.54-.96,3.18,0,6.18,3.76,7.37.64.2,1.29.34,1.95.42,3.43.43,6.71.13,9.65-1.91,2.03-1.41,3.43-3.15,3.19-5.81-.05-.59,0-1.19,0-1.78Z"/>
      <path class="cls-1" d="M64.8,18.61c1.59-1.87,3.34-3.21,5.37-4.18,3.64-1.75,7.49-2.31,11.49-1.95,2.43.22,4.74.8,6.82,2.12,2.97,1.88,4.44,4.65,4.67,8.08.25,3.8.07,7.61.09,11.42.02,3.71,0,7.43.01,11.14,0,.52-.08.75-.69.74-2.41-.04-4.82-.04-7.23,0-.6,0-.69-.2-.69-.73.02-6.19.02-12.38,0-18.57,0-1.33-.1-2.66-.51-3.95-.91-2.91-3.2-4.83-6.24-5.09-3.84-.33-7.38.43-10.23,3.22-2.08,2.04-2.86,4.61-2.86,7.45,0,5.62-.01,11.23.01,16.85,0,.66-.18.82-.83.81-2.39-.04-4.78-.03-7.16,0-.51,0-.63-.16-.63-.65.01-10.54.02-21.09,0-31.63,0-.56.22-.68.69-.72,2.4-.19,4.8-.38,7.2-.6.54-.05.75.05.73.66-.04,1.78-.02,3.56-.02,5.57Z"/>
      <path class="cls-1" d="M31.23,30.46c-4.16,0-8.31,0-12.47,0-.54,0-.73.05-.62.7,1,5.76,4.97,9.62,11.09,10.65,4.22.71,8.31.06,12.34-1.2,1.09-.34,2.18-.7,3.22-1.17.35-.16.54-.12.69.27.35.91.72,1.81,1.12,2.7.18.39.06.53-.29.69-3.5,1.58-7.15,2.62-10.96,3.12-2.37.31-4.76.43-7.15.36-5.01-.16-9.6-1.49-13.42-4.89-2.87-2.56-4.49-5.8-5.07-9.58-.04-.24-.08-.47-.11-.7q-.13-.99-1.11-.99c-2.63,0-5.25,0-7.88,0-.78,0-.78,0-.43-.65.52-.96,1.06-1.92,1.55-2.89.19-.37.42-.49.83-.48,2.2.02,4.39,0,6.59,0,.3,0,.59.07.69-.39.81-3.88,2.96-6.93,6.07-9.3,5.3-4.04,11.29-5.14,17.74-3.78,5.57,1.18,9.73,4.23,12.09,9.5.66,1.47,1.03,3.01,1.09,4.62.09,2.38-.91,3.42-3.32,3.42-4.11,0-8.21,0-12.32,0ZM26.87,26.38c2.48,0,4.97,0,7.45,0,.96,0,1.91-.05,2.84-.3,1.08-.3,1.51-.95,1.44-2.07-.08-1.22-.51-2.32-1.2-3.31-2.83-4.09-8.99-5.28-13.39-3.15-3.44,1.66-5.1,4.64-5.84,8.24-.12.56.05.61.54.61,2.72-.02,5.44,0,8.16,0Z"/>
      <path class="cls-1" d="M278.75,13.07c-1.38,2.59-2.7,5.07-4.02,7.54-4.4,8.25-8.8,16.49-13.18,24.74-.25.46-.51.64-1.04.63-1.77-.03-3.53-.03-5.3,0-.53.01-.79-.16-1.04-.62-4.98-9.58-9.98-19.14-14.98-28.71-.54-1.03-1.07-2.07-1.62-3.1-.2-.36-.14-.49.29-.49,2.98.01,5.97.02,8.95,0,.49,0,.58.32.74.62,3.98,7.69,7.95,15.37,11.93,23.06.12.23.24.45.37.69.33-.15.39-.45.51-.69,4.1-7.68,8.2-15.35,12.27-23.04.24-.46.5-.65,1.03-.64,1.65.04,3.29.01,5.07.01Z"/>
    </g>
  </g>
</svg>