<?xml version="1.0" encoding="UTF-8"?>
<svg id="Capa_1" data-name="Capa 1" xmlns="http://www.w3.org/2000/svg" viewBox="0 0 333.94 70.16">
  <defs>
    <style>
      .cls-1 {
        fill: #3e4e60;
      }

      .cls-1, .cls-2, .cls-3, .cls-4 {
        stroke-width: 0px;
      }

      .cls-2 {
        fill: #37465a;
      }

      .cls-3 {
        fill: #fff;
      }

      .cls-4 {
        fill: #e2ebf6;
      }
    </style>
  </defs>
  <path class="cls-2" d="M70.66.02c0,8.44-.02,16.87-.02,25.31,0,14.28,0,28.56,0,42.84,0,.53-.02.9-.01,1.17h175.42c0-22.41,0-44.83,0-67.24,0-.69.01-1.38.02-2.07H70.66Z"/>
  <g>
    <path class="cls-3" d="M195.97,32.09c0,3.07-1.69,3.72-5.86,2.36-.3,1.65-.26,2.2.36,2.44,3.34,1.29,8.16.48,7.99-4.54-.09-2.59,0-5.19-.03-7.79,0-.47.34-1.27-.62-1.25-.78.01-1.89-.52-1.9,1.02-1.74-1.29-3.04-1.49-4.52-.74-2.32,1.17-3.23,5.06-1.78,7.58,1.27,2.2,3.78,2.59,6.36.92ZM191.83,26.63c.37-.82.97-1.34,1.88-1.35.96-.01,1.66.48,1.99,1.38.19.52.28,1.09.3,1.64.04,1.68-.98,2.89-2.33,2.86-.16,0-.32-.02-.46-.06-1.03-.26-1.64-1.29-1.65-2.83.02-.56.03-1.11.27-1.64Z"/>
    <path class="cls-3" d="M168.42,42.06c-3.5-2.91-7.18-.35-7.36,2.95-.03.6-.05,1.21,0,1.81.16,1.79.9,3.29,2.6,4.05,1.65.74,3.22.45,4.75-1.09-.18,1.67.85,1.28,1.61,1.34.94.07.9-.55.9-1.18,0-4.02-.04-8.04.02-12.06.02-1.12-.62-.99-1.33-1-.69,0-1.28-.05-1.21.98.09,1.35.02,2.7.02,4.21ZM168.12,47.64c-.24.53-.58.96-1.11,1.21-.96.46-1.85.35-2.62-.4-.96-.94-1.2-2.9-.51-4.23.51-.97,1.31-1.5,2.43-1.32,1.22.2,1.84,1.03,2.05,2.19.05.25.04.51.04.58.01.8-.03,1.39-.29,1.96Z"/>
    <path class="cls-3" d="M177.16,33.51c.72-.19,1.23-.74,1.93-1.17-.11,1.65,1.03,1.11,1.79,1.16,1.04.07.75-.74.76-1.28.02-3.94-.03-7.87.03-11.81.02-1.04-.39-1.22-1.3-1.2-.8.02-1.32.09-1.26,1.1.08,1.29.02,2.59.02,4.06-2.87-1.86-5.54-1.44-6.76,1.04-1.03,2.11-.98,4.28.26,6.32.96,1.59,2.74,2.22,4.53,1.76ZM174.21,28.3c.04-1.21.37-2.32,1.62-2.86,1.7-.74,3.29.67,3.28,3.08.01.48-.06,1.12-.37,1.71-.62,1.16-1.99,1.65-3.09,1.04-1.17-.64-1.48-1.76-1.44-2.97Z"/>
    <path class="cls-3" d="M124.34,38.08c.01-.99-.3-1.25-1.25-1.22-.87.03-1.38.1-1.3,1.17.09,1.29.02,2.59.02,4.12-2.65-2.53-6.47-1.3-7.27,2.17-.56,2.41.22,5.07,1.88,6.23,1.5,1.05,3.25.89,5.32-.54-.05,1.59,1.1,1.1,1.92,1.1,1.02,0,.65-.85.66-1.37.03-3.89-.02-7.78.04-11.66ZM121.46,47.76c-.27.52-.63.93-1.17,1.16-.98.41-1.86.25-2.59-.53-.92-.98-1.09-2.99-.36-4.25.55-.96,1.39-1.45,2.49-1.2,1.18.27,1.81,1.1,1.94,2.3.03.26.03.52.04.66-.02.71-.05,1.31-.34,1.87Z"/>
    <path class="cls-3" d="M90.74,26.76h0c0,1.94.01,3.89,0,5.83,0,.6.07.98.83.96,2.17-.04,4.34-.05,6.5,0,.91.02.8-.53.82-1.09.02-.62-.02-1.08-.87-1.04-1.3.06-2.6,0-3.9.02-.54,0-.73-.15-.78-.72-.23-2.9-.25-2.9,2.63-2.9.39,0,.78-.04,1.17,0,.84.1,1.12-.21,1.14-1.07.01-.92-.38-1.11-1.16-1.04-.39.04-.78,0-1.17,0-2.68,0-2.63,0-2.61-2.66,0-.86.34-1,1.07-.97,1.17.05,2.34-.05,3.51.03.95.06.91-.48.92-1.13.01-.65-.06-1.04-.89-1.02-2.08.05-4.16.05-6.24,0-.87-.02-.99.36-.97,1.09.04,1.9.01,3.8.01,5.7Z"/>
    <path class="cls-3" d="M137.3,30.13c.06,2.65,1.73,3.93,4.32,3.39.75-.16,1.31-.62,1.99-1.23-.1,1.74,1.06,1.18,1.86,1.23,1.05.06.72-.78.72-1.3.03-2.55-.04-5.11.04-7.66.04-1.08-.36-1.28-1.34-1.28-.96,0-1.29.25-1.24,1.24.07,1.68.06,3.38-.05,5.06-.08,1.32-1.05,2.09-2.27,1.97-1.28-.13-1.61-.99-1.6-2.11,0-1.73-.06-3.47.02-5.19.06-1.1-.62-.91-1.26-.92-.68-.02-1.28-.08-1.24.95.08,1.94,0,3.89.03,5.84Z"/>
    <path class="cls-3" d="M160.12,33.66c3.02.07,5.01-1.94,5.1-5.14.09-3.08-1.86-5.29-4.73-5.38-2.97-.09-5.08,2.01-5.15,5.12-.07,3.27,1.74,5.33,4.78,5.4ZM160.35,25.19c1.47.04,2.3,1.25,2.29,3.3-.02,1.93-.91,3.16-2.3,3.19-1.46.04-2.39-1.21-2.4-3.21-.02-2.12.88-3.33,2.42-3.29Z"/>
    <path class="cls-3" d="M149.62,46.07c0,3.16,1.88,5.16,4.87,5.17,3.04.01,4.99-2.01,5.02-5.21.03-3.18-1.93-5.27-4.95-5.27-2.96,0-4.93,2.13-4.94,5.31ZM152.46,44.39c.37-.99.99-1.63,2.08-1.63,1.14,0,1.85.62,2.14,1.71.13.5.21,1.01.26,1.28-.02.5-.02.76-.05,1.02-.21,1.57-1.07,2.52-2.29,2.53-1.26.01-2.21-1.02-2.34-2.61-.06-.77-.07-1.54.21-2.29Z"/>
    <path class="cls-3" d="M126.38,46.68c.3,3.61,4.71,5.9,7.86,4.08.83-.48.56-1.27.41-1.84-.19-.7-.72-.05-1.04.05-2.24.68-3.96.06-4.72-1.94,1.85,0,3.58,0,5.31,0,.41,0,.86.12,1.07-.46.72-2.01-.67-4.87-2.72-5.52-3.58-1.14-6.51,1.54-6.17,5.65ZM129.63,43.33c.66-.61,1.45-.78,2.27-.41.75.33,1.12,1.01,1.02,1.78-.12.88-.9.32-1.37.46-.2.06-.43,0-.64,0-.22,0-.44.03-.65,0-.47-.09-1.2.3-1.36-.26-.17-.55.27-1.15.73-1.57Z"/>
    <path class="cls-3" d="M218.2,33.17c.42-.21.62-.52,1.07.13.44.65,2.27.18,2.27-.49.01-2.2.07-4.41-.08-6.6-.13-1.85-1.27-2.84-3.13-3.05-.68-.08-1.39-.07-2.08,0-2.14.18-2.37.48-2.12,2.83,1.18-.61,2.3-.9,3.5-.75.94.12,1.35.69,1.34,1.6-.01,1.08-.86.55-1.35.65-.46.09-.96.02-1.42.11-1.2.22-2.25.7-2.71,1.94-.45,1.21-.2,2.31.7,3.22.93.93,2.67,1.11,4.01.44ZM215.89,30.51c.1-1.27,1.11-1.35,2.34-1.41.4-.06.83.04.78.87-.07,1.14-.66,1.77-1.77,1.74-.8-.02-1.41-.34-1.34-1.2Z"/>
    <path class="cls-3" d="M96.64,51.16c1.86-.26,2.03-.5,1.77-2.58-.48.19-.83.38-1.2.45-1.44.28-2.87.39-3.99-.83-.23-.25-.51-.56-.39-.91.15-.43.6-.23.91-.24,1.48-.02,2.95-.01,4.43-.01.45,0,.81,0,.93-.62.54-2.65-.94-5.09-3.42-5.54-2.7-.49-5.14,1.33-5.47,4.08-.5,4.22,2.18,6.81,6.44,6.2ZM93.42,43.36c.66-.64,1.45-.76,2.27-.43.76.31,1.12.99,1.03,1.77-.11.91-.89.32-1.35.47-.1.03-.21.03-.31.03-.11,0-.22-.02-.33-.02-.16,0-.33.02-.49,0-.05,0-.11,0-.16-.02-.47-.08-1.2.29-1.37-.24-.18-.55.27-1.14.71-1.57Z"/>
    <path class="cls-3" d="M177.94,40.75c-2.99,0-5.02,2.19-4.99,5.4.03,3.13,1.95,5.1,4.97,5.08,3.02-.01,4.9-2.05,4.89-5.3-.01-3.18-1.88-5.17-4.86-5.18ZM177.95,49.29c-1.45.03-2.49-1.39-2.43-3.37.02-.65.14-1.28.42-1.88.41-.87,1.09-1.33,2.05-1.3.96.04,1.64.52,1.93,1.45.18.57.27,1.17.33,1.46.03,2.3-.88,3.6-2.31,3.63Z"/>
    <path class="cls-3" d="M118.3,30.25c.05,2.36,1.29,3.45,3.64,3.35,1.01-.04,1.82-.46,2.53-1.19.34,1.11.82,1.32,2.12,1.13,1.04-.15.58-.93.59-1.42.05-2.55-.01-5.1.04-7.65.02-.93-.3-1.2-1.19-1.15-.78.04-1.43-.04-1.38,1.11.08,1.72.05,3.46-.06,5.18-.08,1.27-.99,2.01-2.15,1.98-1.13-.03-1.7-.72-1.72-2.14-.02-1.73-.07-3.46.02-5.19.06-1.09-.6-.92-1.25-.93-.67-.01-1.28-.1-1.23.95.08,1.99,0,3.98.04,5.97Z"/>
    <path class="cls-3" d="M190.45,46.03c-.44-.34-.97-.56-1.44-.86-.7-.46-2.11-.52-1.7-1.71.39-1.13,1.62-.56,2.53-.56.4,0,1.06.78,1.17-.24.07-.66.35-1.55-.79-1.71-.51-.07-1.02-.15-1.2-.18-2.47-.03-3.88.8-4.25,2.29-.41,1.65.35,2.79,2.53,3.8.43.2.85.42,1.26.66.37.22.52.58.41,1-.1.37-.39.55-.76.6-.74.1-1.46.05-2.18-.19-1.29-.44-1.46-.28-1.3,1.1.05.4.19.64.56.76,1.57.49,3.15.66,4.68-.09,1.95-.95,2.19-3.35.49-4.68Z"/>
    <path class="cls-3" d="M102.8,46.44c.64.36,1.32.64,1.98.98.41.21.73.52.65,1.02-.09.58-.56.71-1.06.78-1.07.13-2.04-.28-3.11-.71-.25,2.24-.08,2.48,1.96,2.67,1.13.11,2.26.1,3.3-.47,1.78-.98,2.03-3.29.45-4.55-.5-.4-1.12-.65-1.67-1-.67-.43-1.96-.53-1.54-1.7.38-1.05,1.49-.51,2.32-.54.04,0,.09,0,.13.02,1.3.63,1.27-.17,1.24-1.09-.02-.54-.27-.75-.76-.86-1.08-.24-2.14-.32-3.22,0-1.21.35-2.12,1.02-2.32,2.34-.22,1.42.44,2.43,1.64,3.1Z"/>
    <path class="cls-3" d="M111.24,25.15c1.31-.08,1.07.77,1.07,1.51,0,.91,0,1.81,0,2.72,0,1.08.07,2.16-.02,3.24-.09,1.08.6.91,1.24.92.67,0,1.27.11,1.23-.94-.08-2.11,0-4.23-.04-6.35-.01-.73.11-1.18.98-1.06.69.09,1.11-.04,1.13-.93.01-.93-.46-.98-1.13-.91-1.15.12-1.06-.55-.83-1.29.21-.68.75-.98,1.4-.9.68.09,1.04.05,1.01-.79-.03-.73-.09-1.2-1-1.28-2.18-.18-3.75,1.02-3.92,3.17-.05.68-.1,1.2-.98,1.09-.58-.07-.61.36-.57.77.04.39-.2,1.06.44,1.02Z"/>
    <path class="cls-3" d="M112.32,29.38c0-.91,0-1.81,0-2.72,0,.91,0,1.81,0,2.72,0,1.08.07,2.16-.02,3.24.09-1.07.02-2.16.02-3.24Z"/>
    <path class="cls-3" d="M205.16,24.32c-.05.4-.01.86.56.8.99-.1,1.02.48.99,1.19-.03.65,0,1.3,0,1.94h0c0,.69-.02,1.38,0,2.07.07,2.52,2.1,3.91,4.5,3.14.92-.3.63-1.01.65-1.6.02-.81-.55-.42-.91-.39-1.39.13-1.78-.21-1.8-1.65-.02-1.08.07-2.17-.02-3.24-.09-1.11.21-1.63,1.41-1.46.71.1,1.22.01,1.2-.98-.02-.99-.6-.91-1.19-.85-1.03.11-1.6-.2-1.4-1.33.18-1.06-.39-1.17-1.27-1.18-.89-.01-1.29.23-1.17,1.16.1.78.06,1.45-1.07,1.39-.69-.04-.41.61-.46.99Z"/>
    <path class="cls-3" d="M145.49,39.64c.18-.98-.24-1.23-1.21-1.22-.93,0-1.38.19-1.24,1.21.09.65.13,1.35-.92,1.25-.67-.06-.6.46-.6.89,0,.47-.1,1.02.66.96.82-.06.89.42.88,1.06-.02,1.38-.03,2.77,0,4.15.06,2.21,1.13,3.25,3.45,3.26.12,0,.38-.03.64-.04,1.08-.04,1.02-.78,1.03-1.55.01-1.17-.75-.48-1.15-.47-1.04.04-1.56-.39-1.55-1.42,0-1.21.07-2.43-.02-3.63-.08-1.08.28-1.5,1.37-1.37.65.08,1.27.13,1.25-.93-.02-1.05-.63-.98-1.28-.92-.94.09-1.53-.13-1.32-1.24Z"/>
    <path class="cls-3" d="M129.42,25.17c.83-.08.89.41.88,1.04-.02,1.38-.03,2.77,0,4.15.06,2.23,1.1,3.22,3.42,3.23.07,0,.25-.02.42-.02,1.02.04,1.32-.45,1.3-1.44-.04-1.2-.76-.58-1.24-.57-.97.03-1.47-.42-1.47-1.38,0-1.21.06-2.43-.02-3.63-.08-1.04.19-1.53,1.33-1.38.64.08,1.28.15,1.29-.91.01-1.06-.62-.98-1.27-.92-.93.08-1.53-.1-1.34-1.23.14-.84-.03-1.35-1.13-1.32-1,.02-1.44.26-1.31,1.3.09.66.12,1.36-.92,1.25-.69-.07-.6.44-.6.87,0,.47-.09,1.03.67.96Z"/>
    <path class="cls-3" d="M224.1,32.47c-.01,1.06.53,1.05,1.29,1.05.73,0,1.22-.04,1.19-1.01-.07-2.03-.02-4.06-.02-6.09h0c0-2.03-.05-4.06.02-6.09.04-.98-.37-1.13-1.21-1.11-.78.02-1.28.03-1.27,1.07.06,4.06.06,8.12,0,12.18Z"/>
    <path class="cls-3" d="M102.61,33.54c.65,0,1.29.14,1.25-.93-.08-2.03-.02-4.06-.02-6.09h0c0-2.12-.04-4.23.02-6.35.03-1.08-.68-.87-1.3-.89-.64-.02-1.17-.06-1.16.89.04,4.15.06,8.29,0,12.44-.02,1.07.59.93,1.24.93Z"/>
    <path class="cls-3" d="M150.03,33.54c.69,0,1.27.06,1.21-.97-.09-1.51-.06-3.03,0-4.54.06-1.64.87-2.47,2.48-2.52.56-.02.83-.16.76-.72-.05-.5.25-1.12-.25-1.45-.51-.34-1.12-.09-1.62.15-.45.22-.81.61-1.44,1.1.37-1.73-.79-1.15-1.51-1.25-.97-.13-.89.52-.89,1.15,0,2.68.04,5.36-.04,8.04-.03,1.09.57,1.02,1.3,1.02Z"/>
    <path class="cls-3" d="M203.49,28.34h0c0-1.34-.06-2.69.02-4.02.07-1.08-.55-1.05-1.3-1.04-.68.01-1.26-.07-1.23.97.07,2.77.06,5.54,0,8.31-.02,1.01.53.97,1.23.98.76,0,1.36.03,1.3-1.04-.08-1.38-.02-2.77-.02-4.15Z"/>
    <path class="cls-3" d="M185.53,33.53c.71.03,1.27.02,1.22-.98-.07-1.38-.02-2.76-.02-4.14h0c0-1.38-.06-2.77.02-4.14.06-1.01-.51-1.01-1.21-.98-.63.02-1.29-.16-1.27.91.06,2.8.06,5.61,0,8.41-.02,1.07.62.89,1.26.92Z"/>
    <path class="cls-3" d="M202.25,21.7c.92-.02,1.4-.56,1.44-1.49-.09-.91-.62-1.45-1.52-1.41-.9.05-1.43.65-1.38,1.55.05.83.59,1.35,1.45,1.34Z"/>
    <path class="cls-3" d="M185.5,21.71c.9,0,1.42-.54,1.45-1.5-.07-.9-.61-1.42-1.51-1.4-.83.02-1.38.56-1.39,1.41-.01.92.54,1.48,1.44,1.49Z"/>
    <path class="cls-3" d="M193.21,31.1c-1.03-.26-1.64-1.29-1.65-2.83.02-.56.03-1.11.27-1.64-.24.53-.25,1.09-.27,1.64,0,1.53.62,2.57,1.65,2.83Z"/>
  </g>
  <path class="cls-4" d="M70.64,25.34c0-8.44.01-16.87.02-25.31C47.46.02,24.27.03,1.07,0,.18,0,0,.17,0,1.06c.03,22.73.03,45.46,0,68.18,0,.03,0,.06,0,.09h70.63c0-.27.01-.64.01-1.17,0-14.28,0-28.56,0-42.84Z"/>
  <g>
    <path class="cls-2" d="M58.7,27.51c-.39.28-.64.7-.98,1.03-.25.24-.45.53-.66.8-.06.08-.12.12-.22.12-.12,0-.23,0-.35,0-.9,0-.97.08-.82.99.02.1.06.2.06.3,0,1.8.31,3.6.13,5.4-.1.97-.1,1.95-.22,2.92-.06.48-.07.98-.18,1.45-.23.95-.31,1.92-.65,2.85-.2.54-.29,1.11-.47,1.65-.74,2.19-1.81,4.2-3.45,5.85-.78.79-1.69,1.44-2.7,1.91-.92.42-1.88.73-2.92.72-.67-.01-1.35.03-2.02-.08-.78-.13-1.54-.37-2.27-.65-.63-.24-1.26-.51-1.83-.88-.06-.04-.15-.08-.21,0-.05.05-.01.12,0,.18.39,1.18.9,2.3,1.49,3.4.12.23.27.43.39.66.18.33.08.47-.28.49-.45.02-.9.06-1.38.09.11.39.24.75.21,1.14-.04.54-.41.83-.92.66-.42-.14-.58-.04-.59.38,0,.85-.15.97-.98,1.18-.78.2-1.53.06-2.3-.05-.1-.02-.2-.04-.31-.02h0c-.28-.38-.43-.8-.35-1.29.03-.16-.11-.11-.18-.11-.22-.01-.45.03-.66-.03-.56-.15-.8-.75-.56-1.34.22-.54.18-.6-.37-.61-.28,0-.55-.03-.83,0-.37.03-.48-.19-.3-.51.47-.81.98-1.61,1.32-2.48.18-.47.45-.91.45-1.44h0c.14-.05.13-.17.03-.22-.09-.05-.11.06-.11.14h0c-.26-.04-.42.17-.61.28-1.01.59-2.09.98-3.26,1.16-.53.08-1.05.14-1.57.11-1.08-.06-2.12-.3-3.14-.71-1.97-.8-3.44-2.19-4.66-3.86-.62-.85-1.07-1.81-1.48-2.79-.38-.91-.64-1.86-.92-2.8-.14-.44-.2-.93-.33-1.38-.21-.71-.22-1.44-.44-2.14-.06-.2-.05-.44-.05-.66.01-.58-.16-1.13-.2-1.71-.09-1.53-.04-3.07-.06-4.6-.01-.66.04-1.33.1-1.98.04-.41.1-.83.12-1.25,0-.18-.03-.33-.24-.28-.84.19-1.31-.29-1.77-.89-.57-.75-1.22-1.44-1.83-2.15,0-.16,0-.31,0-.47.56-.03,1.03.27,1.53.45.79.29,1.55.64,2.35.9.24.08.41.19.45.46.06.4.23.74.69.86-.04-.93.11-1.85.08-2.78,0-.31-.09-.43-.39-.37-.57.1-.98-.09-1.23-.61-.01-.02-.03-.04-.05-.06-.54-.66-1.07-1.33-1.62-1.98-.11-.13-.12-.28-.06-.39.07-.13.22-.16.38-.1.09.04.2.04.3.07.75.27,1.51.52,2.25.81.29.11.69.11.77.49.11.52.5.75.88,1,.86.58,1.73,1.15,2.59,1.73,1.1.73,2.24,1.39,3.38,2.03.17-.3.19-.63.11-.89-.04-.13-.41-.13-.65-.14-.04,0-.07-.03-.1-.05-1.32-.46-1.87-1.46-1.9-2.81-.01-.5.15-.92.55-1.26.19-.16.41-.31.57-.62-.59.18-1.14.19-1.67.4-1.05.42-2.73-.23-3.32-1.26-.16-.28-.04-.5.28-.51.3,0,.59,0,1.01,0-.27-.17-.13-.39-.28-.57-.12.16-.3.19-.47.26-.29.12-.64-.06-.9.2-.14.15-.35.16-.51.11-.32-.11-.52.07-.77.19-.23.11-.53.35-.75.17-.35-.29-.55-.09-.76.12-.19.18-.45.24-.59.1-.18-.19-.28-.11-.44-.03-.15.07-.26.16-.39.24-.4.27-.76.65-1.32.39v-.55c.51-.97,1.28-1.69,2.19-2.27.07-.04.07-.1.08-.16h0c.54-.23.92-.68,1.39-1.02.44-.33.83-.73,1.24-1.1.08-.07.12-.13.11-.23h0c.27-.12.46-.33.66-.52,1.34-1.27,2.81-2.34,4.42-3.24.68-.38,1.33-.82,1.93-1.33.56-.48,1.24-.79,1.95-1.03.59-.2,1.2-.34,1.78-.56.4-.15.85-.19,1.29-.21.69-.03,1.38-.03,2.07,0,.52.02,1.04.14,1.46.43.52.36.7.92.58,1.54-.06.29.04.33.27.37.18.03.35.03.54,0,.54-.12.76,0,1,.5.06.11.15.21.24.3.19.22.29.47.24.76-.05.34.13.51.43.48.5-.05.95.1,1.36.34.18.11.3.23.53.22.32-.02.59-.36.46-.66-.21-.48-.3-1-.5-1.48-.5-1.21.44-2.63,1.74-2.81.92-.12,1.85-.12,2.76.03,1.74.28,3.39.83,4.83,1.9,1.04.77,2.13,1.48,3.19,2.24,1.16.83,2.33,1.64,3.41,2.57.46.39.92.79,1.39,1.17.09.08.17.21.33.18h0c.2.43.65.59.98.89.84.77,1.71,1.52,2.38,2.47.19.27.29.54.17.87h0c-.36-.01-.73.06-1.05-.18-.11-.08-.1.03-.15.09-.73.88-1.46,1.77-2.21,2.64-.17.19-.31.48-.68.22-.15-.1-.43-.03-.65-.01-.22.02-.18.23-.14.33.21.64.08,1.28.11,1.93.02.35,0,.7,0,1.1.4-.21.73-.39.82-.86.08-.39.32-.62.75-.75.89-.26,1.74-.62,2.62-.92.21-.07.43-.08.62-.21.13-.08.3.06.33.13.05.13.03.29-.1.42-.31.31-.59.63-.82,1h0ZM38.27,24.46s-.01-.01-.02-.02c0,0,.01.01.02.02h0s-.01,0-.01,0ZM34.21,16.17s.01.09.08.08c0,.25.18.35.38.57-.01-.38-.21-.46-.39-.57-.01-.04-.02-.09-.08-.08.02-.06,0-.1-.05-.12-.01,0-.03.01-.05.02.03.03.07.06.1.1ZM38.74,57.24s.01.02.02.03c0,0,.01,0,.02,0-.01,0-.03-.02-.04-.03-.03-.11-.05-.23-.08-.34-.03-.1-.1-.14-.21-.12-.08.01-.17,0-.18.1-.01.1.09.1.16.14.11.07.21.14.32.22ZM36.71,22.43c0-.06-.02-.12-.02-.19-.07.08-.05.14.03.19-.03.3-.03.6.21.94-.02-.39.02-.69-.21-.94ZM13.57,26.86s-.05-.02-.08-.03c.01.02.03.05.04.07.26.48.66.85,1,1.27.33.41.62.89,1.33.76.37-.06.47-.12.42-.48-.04-.27,0-.58-.3-.7-.8-.32-1.61-.6-2.41-.9ZM58.46,26.88c-.77.18-1.51.47-2.26.73-.11.04-.26.03-.34.21-.11.28-.17.58-.32.85-.09.16.05.23.2.24.29,0,.57,0,.86,0,.1,0,.17-.05.23-.12.55-.63,1.09-1.26,1.64-1.89.03-.01.09-.02.03-.07-.01.02-.03.04-.04.06ZM52.91,17.97c.1.31.37.47.62.63,0,.16.15.2.22.3.15.22.27.44.08.67-.19.24-.45.28-.73.11-.1-.06-.2-.12-.35-.09.29.28.43.65.77.87.1.06.16.14.24,0,.13-.22.31-.15.48-.07.2.09.38.21.57.32.13.08.27.17.28-.1,0-.29.11-.23.32-.13.23.11.4.33.66.38.1-.09-.11-.25.06-.3.13-.04.28-.06.39.08.07.1.17.16.3.15,0,.01,0,.02.02.03,0,0,.02,0,.02,0-.01,0-.03-.02-.04-.03.01-.14,0-.31.16-.36.16-.05.22.11.3.2.36.41.83.72,1.07,1.24.03.07.11.1.2.09,0,.01,0,.02.02.03,0,0,.01,0,.02,0l-.04-.02c-.07-.32-.3-.53-.51-.75-.87-.92-1.84-1.74-2.84-2.53-.84-.66-1.65-1.37-2.47-2.05-1.69-1.4-3.51-2.6-5.34-3.8-.21-.14-.4-.35-.68-.41,0,.26.17.36.34.46.3.17.51.44.72.7.13.16.09.37,0,.55-.05.09-.14.11-.19.06-.16-.15-.54-.1-.44-.49.03-.11-.08-.2-.18-.28-.24-.2-.5-.37-.78-.51-.08-.04-.17-.06-.16-.18.02-.4-.33-.45-.63-.71.07.36.02.56-.25.62-.06.01-.16-.09-.18.06-.01.1,0,.18.11.22.08.04.16.08.23.13.37.25.87.26,1.18.64.12.15.19.39.09.45-.37.2-.62.75-1.17.38-.03.25.15.32.23.45.09.14.2.27.29.41.28.43.16.8-.24,1.08-.14.1-.4.07-.43.27-.06.43-.51.52-.7.84-.07.11-.26.14-.39.04-.13-.1-.1-.23-.02-.35.16-.26.13-.49-.01-.76-.12-.21-.24-.43-.38-.63-.07-.1-.14-.18-.04-.26.12-.1.2.02.25.1.17.24.33.49.53.8,0-.62-.44-.94-.66-1.36-.11.09-.19.18-.31.25-.22.12-.3.48-.14.6.32.24.42.61.59.93.2.37.03.75-.35.91-.1.04-.17.07-.16.18.03.26-.2.25-.37.32.35.15.74.21.83.65.24-.25.25-.27.5-.14.25.13.31.01.32-.19,0-.13-.01-.25-.05-.38-.08-.25.12-.48.34-.41.26.09.56-.06.82.12.08.06.23-.05.25-.14.07-.37.28-.23.49-.16.38.12.75.32,1.28.29-.24-.23-.37-.42-.58-.54-.07-.04-.14-.1-.09-.19.04-.08.15-.08.2-.03.29.24.7.13,1,.35.09.07.24.06.31-.06.08-.12-.04-.18-.11-.25-.12-.11-.23-.24-.36-.34-.08-.06-.1-.13-.06-.19.07-.1.13,0,.19.03.27.14.54.29.82.42.38.17.57.07.66-.32.22.11.44.22.7.19.07,0,.21-.05.19-.07-.23-.19.12-.48-.13-.66-.07-.05-.2-.14-.13-.25.06-.1.19-.02.3-.02h0c.21.37.88.79,1.18.72-.04-.13-.16-.2-.25-.27-.06-.05-.14-.1-.09-.19.06-.1.18-.04.24,0,.15.09.28.22.43.33,1.05.8,2.07,1.63,2.94,2.61.15.17.27.35.27.58,0,.1.03.22-.09.28-.1.05-.17-.05-.24-.09-.32-.2-.54-.51-.81-.76-.24-.22-.42-.51-.76-.61-.1-.32-.36-.47-.63-.62,0-.15-.12-.23-.22-.31-.38-.29-.86-.2-1.29-.28-.04,0-.1.1-.14.17-.06.1.05.09.1.12.24.17.49.34.72.52.16.13.38.32.23.5-.14.16-.38.03-.54-.12-.05-.04-.1-.09-.14-.13-.28-.25-.54-.52-.84-.74-.2-.14-.45-.34-.67.02-.08.13-.26.1-.4.1-.19-.01-.45-.11-.56-.03-.25.2-.5.17-.77.17-.13,0-.23.01-.23.18,0,.31-.19.39-.46.37-.17-.01-.35,0-.57,0,.16.12.29.22.43.31.06.04.15.12.19,0,.15-.51.4-.23.62-.08.31.22.62.45.97.61.07.03.15.07.2-.02.05-.09,0-.14-.08-.19-.16-.11-.31-.22-.46-.33-.15-.11-.32-.26-.17-.44.12-.14.34-.1.49.04.38.37.88.52,1.31.79.17.1.32.21.63.21-.34-.62-1.09-.81-1.36-1.42.5-.07,1.4.54,1.43,1.01.01.17.1.22.18.28.27.19.58.13.87.11.14-.01.16-.1.04-.21-.06-.06-.15-.15-.07-.23.08-.1.21-.03.29.02.25.17.52.24.84.27-.23-.44-.54-.77-.87-1.09-.09-.09-.32-.15-.21-.31.13-.19.23.05.35.09.06.02.12.01.18.02ZM24.57,22.28s.01.06.05.03c-.01-.01-.03-.03-.04-.04-.12-.55-.77-1.14-1.32-1.14-.49,0-.98-.02-1.48.04-.32.04-.65.08-.98.04-.33-.03-.59-.22-.94-.28.03.09.05.14.07.18.16.51.08.63-.44.63-.19,0-.38,0-.64,0,.6.62,1.19,1.12,2.01.96.45-.09.91-.2,1.36-.31.76-.2,1.55-.36,2.35-.11ZM39.53,24.77c-.06,0-.14-.01-.19.01-.85.34-1.58.86-2.24,1.5-.11.1-.05.13.05.22.47.4.93.09,1.34-.06.79-.27,1.6-.42,2.41-.49.88-.07,1.77-.07,2.64.14.68.16,1.34.35,2.01.56.76.24,1.52.56,2.38.25.82-.3,1.41-1.05,1.39-1.98.02-.02.04-.05.06-.07,0,0-.02-.02-.04-.03-.01.03-.03.06-.04.09-.48.14-.97.22-1.48.2-.25,0-.47-.11-.72-.13-.69-.05-1.37-.2-2.04-.31-1-.17-2.01-.25-3.02-.3-.39-.02-.77.06-1.15.1-.47.05-.93.07-1.36.3h0ZM21.13,15.85c.19-.03.32.09.22.23-.15.2-.14.42-.21.61-.18.52.16.31.33.29.11-.01.25-.04.35-.15.06-.06.26-.11.22.09-.07.34.14.27.31.24.42-.07.79-.28,1.14-.5.07-.04.15-.09.21-.02.06.08-.02.15-.08.19-.21.15-.41.31-.55.55.57.23,1.07-.25,1.71-.23-.24.24-.52.32-.62.57-.02.06-.06.15-.04.18.05.07.15.06.21.02.31-.19.69-.19,1.01-.34.08-.04.25-.03.25-.02.08.48.67.04.79.44.39-.15.31.14.33.34.02.2-.1.5.14.55.18.04.23-.25.31-.42.05-.12.16-.19.28-.15.16.05.11.19.07.3-.06.17-.07.32.09.47.12-.15.21-.31.34-.43.16-.15.29-.39.58-.28.06.02.1.16.17.04.05-.1-.02-.15-.12-.2-.29-.14-.42-.44-.66-.64-.12-.1-.21-.28-.15-.46.12-.38.22-.78.52-1.04.26-.23.31-.44.1-.69-.12-.14-.37-.39-.46-.26-.28.41-.64.79-.68,1.39.32-.38.44-.85.9-1.09,0,.32-.21.52-.33.74-.15.28-.42.55-.19.91.11.16.13.34-.02.44-.15.1-.35.02-.43-.14-.16-.29-.54-.38-.66-.73-.04-.1-.28-.35-.5-.4-.35-.09-.37-.3-.29-.58.11-.37.31-.67.6-.93.05-.05.15-.12.1-.2-.04-.07-.15-.12-.24-.04-.27.25-.46,0-.57-.16-.16-.21-.02-.44.14-.63.07-.08.16-.07.25-.06.06,0,.08.04.09.1.02.32.05.35.33.21.14-.07.26-.22.31.07.02.1.06.15.22.07.17-.09.42-.23.61-.09.28.2.34.21.86-.02.23-.1.13-.28.14-.43.02-.27.05-.51.39-.54-.03.42.07.49.44.31.14-.07.26-.17.39-.25.04-.03.1-.07.13-.02.03.03.03.09.03.14,0,.09-.17.07-.13.2.19.06.32-.07.47-.12.43-.16.04.21.18.29.21.11.19.13-.02.27-.07.05-.27.04-.13.23.1.13.18.15.32.05.22-.17.39-.36.5-.62.04-.1.16-.17.25-.12.1.04.09.18.02.23-.23.19.1.24.06.38.13-.12.24-.22.36-.33.09-.08.26-.09.23-.27-.04-.25.05-.42.27-.55.07-.04.09-.13,0-.21-.12.07-.23.17-.36.21-.21.07-.5.07-.49-.19.01-.27-.08-.26-.26-.26-.07,0-.14-.04-.15-.1-.03-.27-.16-.16-.32-.13-.23.04-.4-.08-.41-.35,0-.34.49-.78.89-.75-.08.09-.14.17-.21.23-.09.08-.2.15-.13.28.04.07.15.06.21.01.12-.09.35-.08.36-.27.01-.22.06-.32.24-.23.2.09.41.16.6.32.29.24.37.62.62.92.2-.53.02-1.06-.41-1.25-.69-.32-1.45-.33-2.18-.35-.36,0-.77.08-1.17.11-.22.02-.44.08-.67.12.08.18.22.11.32.13.09.02.22.03.2.14-.06.4.11.19.27.12.18-.07.42-.14.44.17.02.32.16.31.38.21.06-.03.13-.07.16.01.02.05,0,.13-.02.18-.09.17-.73.43-.83.32-.25-.31-.46-.07-.75,0,.31.02.63-.05.61.38,0,.12.12.08.18.07.16-.02.29-.08.42-.19.06-.04.19-.06.24.04.04.09-.05.14-.11.18-.32.2-.67.33-1.06.31-.04-.34-.24-.41-.55-.38-.12.01-.33.09-.37-.08-.03-.13.08-.3.27-.32.25-.03.02-.12,0-.14-.1-.15-.2-.02-.29.02-.38.16-.75.06-.99-.29-.03.17-.36.27,0,.44.06.03.09.13.02.16-.2.07-.45.11-.6,0-.16-.12-.09-.33.11-.44.03-.01.03-.06.05-.1-.32-.01-1,.35-.96.56.06.32-.16.3-.32.42-.31.23-.8.3-.81.83,0,.12.03.27-.17.28-.17,0-.37.16-.51-.02-.1-.14-.1-.33,0-.48.25-.31.53-.6.88-.8.11-.06.31-.08.21-.25-.1-.17-.23.02-.31.07-.89.7-1.85,1.3-2.81,1.9-1.36.85-2.61,1.84-3.79,2.91-1.14,1.03-2.26,2.09-3.5,3-.61.45-1.25.86-1.57,1.63.08-.02.14-.01.17-.04.42-.36.96-.56,1.4-.9.18-.14.34-.14.38.14.03.25.1.18.26.07.3-.2.5-.48.73-.74.14-.17.35-.15.49-.06.11.07.09.25-.03.37-.07.07-.13.18-.06.32.31-.16.61-.29.85-.53.12-.12.24-.26.43-.2.19.06.05.26.15.37.21-.02.27-.18.37-.35.09-.15.23-.45.43-.1.17.29.29.19.48.05.26-.19.13-.29.03-.53-.15-.35-.35-.25-.52-.16-.29.16-.45-.06-.58-.19-.14-.14-.15-.39.03-.56.37-.36.76-.7,1.14-1.05.09-.08.2-.18.3-.06.07.09-.03.18-.12.25-.32.25-.55.58-.79.9-.05.06-.11.14-.07.21.04.07.15.06.21.03.22-.1.44-.2.65-.31.08-.04.16-.12.24-.04.07.08-.04.13-.07.19-.14.29-.06.41.26.38.22-.02.43-.07.62-.2.06-.05.22-.16.24,0,.04.32.25.16.32.1.48-.39,1.13-.47,1.56-.94.03-.04.09-.05.14-.07.14-.07.29-.09.38.05.09.14,0,.27-.12.37-.22.19-.46.37-.75.46-.14.05-.14.15-.11.25.05.15.16.09.25.03.3-.2.6-.4.9-.6.15-.1.36-.24.49-.09.26.3.41.03.6-.05.07-.03.1-.08.08-.15-.02-.09-.11-.06-.16-.06-.2.01-.32-.07-.47-.2-.21-.18.05-.32,0-.47-.35.11-.69.29-.99-.07-.03-.03-.13-.04-.18-.02-.23.09-.46.05-.71.06.04.15.08.29-.06.43-.27.26-.56.5-.87.71-.07.04-.2.18-.3.06-.09-.11-.04-.28.05-.36.28-.24.47-.59.87-.69.16-.04.25-.14.17-.3-.06-.11-.05-.28-.32-.14-.52.26-.74.15-.86-.32-.15.26-.4.21-.63.22-.2.01-.38-.04-.59.11-.75.56-1.38,1.25-2.02,1.91-.19.2-.41.36-.62.52-.08.06-.2.09-.29,0-.07-.06-.06-.16-.02-.22.2-.3.29-.66.57-.9.39-.33.77-.69,1.14-1.05.59-.57,1.27-1.01,1.89-1.54.07-.06.18-.16.27-.04.07.09-.01.17-.09.22-.04.03-.08.06-.12.1-.05.06-.13.12-.06.2.06.06.15.05.21,0,.31-.25.72-.37.93-.75.08-.03.09-.09.08-.16ZM35.23,42.91s.05-.05.07-.08c-.45-.43-.8-.89-.62-1.55.03-.11-.05-.17-.16-.16-.26.03-.44-.17-.69-.21-.22-.04-.3-.21-.32-.45-.04-.48.14-.91.19-1.36.02-.14.06-.22-.13-.18-.09.02-.13-.08-.17-.14-.15-.22-.08-1.05.13-1.21.81-.62,1.65-1.17,2.74-1.12.39.02.84.15.99.47.53,1.12.87,2.32.75,3.59-.04.4.09.68.45.84.21.09.23.25.22.44-.02.23-.23.25-.37.28-.56.11-1.1.13-1.43-.48-.05-.09-.1-.21-.23-.14-.1.05-.25.09-.23.23.06.42-.23.65-.45.93-.06.07-.13.15-.09.24.04.11.16.06.24.06,2.71,0,5.42,0,8.14,0,.16,0,.28-.02.36-.21.59-1.37.99-2.8,1.33-4.25.17-.7.31-1.4.39-2.12.06-.54.07-.56-.46-.56-6.51,0-13.01,0-19.52,0-.2,0-.4.05-.59-.11-.08-.07-.32-.12-.26.18.15.84.23,1.7.43,2.52.17.72.33,1.45.57,2.17.22.66.43,1.33.67,1.98.1.28.26.43.6.41.52-.04,1.04-.01,1.56-.01,1.97,0,3.93,0,5.9,0ZM39.45,35.17c.12.01.21.02.29.03,1.44.08,2.88-.12,4.32.12.7.12,1.43.02,2.15.02.16,0,.27-.02.29-.22.15-1.1.04-2.21.19-3.32.18-1.31-.22-2.63-.13-3.95.01-.21-.04-.38-.33-.43-.37-.07-.73-.22-1.09-.35-.08-.03-.1-.03-.18.01-.81.37-1.61.72-2.5.89-.82.16-1.64.15-2.44.06-1.03-.12-2.03-.48-2.96-.98-.34-.18-.43-.12-.45.25-.01.19-.11.41-.28.53-.2.14-.22-.08-.29-.19,0,0-.04.01-.07.02-.28.16-.45-.01-.62-.2-.21-.23-.44-.28-.76-.14-.81.36-1.65.65-2.54.76-1.6.2-3.14.01-4.59-.68-.27-.13-.52-.16-.78-.14-.37.03-.74.12-1.1.19-.11.02-.23.07-.22.23.02.26-.11.51-.13.75-.06.95-.1,1.9-.06,2.84.05,1.16-.05,2.32.17,3.48.06.34.13.46.49.46,3.85-.01,7.69,0,11.54,0,.11,0,.21-.02.42-.03-.39-.18-.61-.36-.55-.73.01-.08-.05-.14-.09-.2-.33-.57-.01-1.13.65-1.16.14,0,.23,0,.26-.19.07-.56.32-1.06.72-1.43.54-.5,1.16-.79,1.91-.42.41.2.96.11,1.13-.23.25-.5.87-.58,1.11-1.07.02-.05.14-.07.21-.09.81-.14,1.16.35,1.08,1.01-.03.24-.01.46,0,.7.02.29.14.7-.07.86-.3.23-.32.52-.37.81-.05.24-.15.46-.34.58-.44.27-.89.51-1.26.87-.12.12-.29.15-.47.15-.75,0-1.39.51-2.15.47-.03,0-.06.04-.12.09ZM16.89,28.98c-.28,1.09-.29,2.21-.35,3.3-.12,1.99-.08,3.99.11,5.99,0,.04.02.08.02.11.16,1.02.31,2.03.49,3.05.14.79.35,1.57.55,2.34.34,1.31.84,2.57,1.48,3.77.52.98,1.07,1.94,2.1,2.5.73.4,1.45.81,2.28.95.93.16,1.85.08,2.76-.16.15-.04.34-.04.39-.2.03-.13-.13-.21-.23-.29-.72-.67-1.37-1.42-1.87-2.26-.98-1.65-1.85-3.35-2.5-5.17-.31-.87-.65-1.73-.88-2.62-.28-1.07-.52-2.16-.62-3.26-.11-1.21-.24-2.42-.21-3.64.01-.61,0-1.22,0-1.84,0-.22-.06-.36-.26-.48-.47-.28-.92-.59-1.38-.89-.64-.41-1.27-.81-1.89-1.21ZM55.12,28.95c-1.08.71-2.08,1.39-3.13,2.02-.43.26-.63.52-.49,1.02.05.18.03.39,0,.58-.14.95.04,1.9-.15,2.86-.11.55-.18,1.14-.24,1.71-.02.18.02.37-.03.54-.23.78-.28,1.6-.52,2.38-.2.63-.28,1.3-.5,1.92-.42,1.15-.83,2.3-1.32,3.42-.42.96-.95,1.85-1.51,2.73-.53.84-1.18,1.59-1.84,2.33-.16.18-.24.32.11.36.38.05.75.15,1.14.19.42.05.82,0,1.24-.02.79-.02,1.53-.25,2.19-.66,1.41-.86,2.35-2.15,3.02-3.63.35-.77.62-1.57.88-2.38.3-.93.51-1.88.73-2.82.11-.45.08-.95.22-1.37.24-.72.16-1.47.29-2.2.12-.66.12-1.37.11-2.06-.03-1.25-.02-2.5-.05-3.74-.02-1.05-.29-2.07-.15-3.19ZM38.74,20.12c-.13.31-.23.58-.34.85-.14.32-.33.61.01.94.12.12.16.34.21.53.12.41-.06.8-.02,1.2.03.25.2.35.42.23.3-.16.73.07.96-.33.03-.05.17.04.22.11.19.27.3.22.49-.03.3-.42.55-.36.73.14.06.16.17.13.29.14.88.03,1.75.01,2.62.16.6.1,1.22.18,1.82.27.26.04.55-.04.79.14.03.02.11,0,.14-.03.05-.06-.02-.1-.05-.16-.16-.31-.26-.63-.26-1,0-.46.15-.86.38-1.24.45-.78,1.08-1.3,2.02-1.33.53-.02,1.04.13,1.55.25.32.08.7.18.94-.23-.55-.02-.63-.07-1.19-.39-.16-.09-.34-.3-.46-.27-.45.12-.74-.18-1.09-.31-.31-.12-.55-.54-.96-.21-.02.01-.06,0-.08,0-.22-.14-.49-.12-.7-.31-.29-.26-.61-.47-1.04-.43-.19.02-.36-.1-.53-.21-.35-.23-.35-.23-.42.19-.1.58-.32.74-.79.63-.06-.01-.11-.04-.19,0-.48.18-.59.14-.87-.28-.12-.18-1.17-.27-1.31-.11-.04.05-.04.13-.09.17-.33.26-.36.93-1.02.75-.1-.03-.09.11-.14.16-.2.17-.43.41-.69.21-.21-.16-.27-.08-.41.04-.4.34-.64.3-.98-.21ZM24.79,24.54c.43-.05.81-.11,1.19-.17.53-.09,1.05-.22,1.57-.33.74-.16,1.47-.32,2.22-.37.57-.03,1.14.01,1.71.07.07,0,.16.1.22-.05.21-.52.41-1.02.08-1.58-.11-.19-.09-.43.03-.66.09-.17.16-.41-.17-.47-.14-.03-.22-.14-.29-.24-.32-.41-.57-.89-1.18-.92-.06,0-.16-.08-.17-.14-.18-.62-.6-.73-1.19-.71-.3.01-.48.04-.67.28-.14.18-.37.38-.64.27-.19-.08-.37-.08-.57-.09-.32-.02-.55-.11-.64-.48-.14-.54-.17-.52-.65-.24-.17.1-.38.21-.57.2-.29,0-.49.13-.71.26-.24.13-.44.46-.74.36-.41-.13-.68.08-.97.26-.31.2-.59.44-.99.21-.04-.02-.13.01-.18.05-.3.19-.59.39-.88.59.27.03.49.16.77.1.55-.11,1.1-.21,1.67-.18.53.03.94.25,1.35.55,1,.73,1.06,2.38.38,3.44ZM44.32,43.41c-.17,0-.28-.02-.39-.02-4.62,0-9.23,0-13.85,0-.07,0-.13,0-.2,0-.19,0-.22.07-.15.24.12.28.37.42.61.57.16.1.27.21.32.41.18.82.8,1.12,1.53,1.31.38.1.79.13,1.16.25.81.26,1.62.52,2.49.51.1,0,.21.02.31.03.47.05.93.09,1.39-.15.78-.39,1.17-.23,1.62.54.04.07.08.13.16.26.09-.32.16-.5.35-.65.35-.29.61-.73,1.16-.67.02,0,.05-.02.07-.04.42-.55.88-.32,1.33-.06.43.24.51.22.79-.21.48-.73.88-1.5,1.32-2.33ZM22.27,51.17c.1.12.13.17.17.2,1.2.86,2.5,1.47,3.99,1.65,1.18.15,2.34.1,3.47-.25,1.09-.33,2.06-.91,3.01-1.53.19-.12.27-.24.03-.44-.78-.68-1.6-1.32-2.29-2.09-.15-.17-.24-.08-.33.02-.36.38-.73.77-1.14,1.11-.98.81-2.05,1.43-3.32,1.64-.2.03-.42.01-.61.07-.44.11-.86.08-1.3.02-.54-.08-1.07-.18-1.67-.4ZM23.68,33.3c-.16.77,0,1.5.03,2.21.02.45.1.95.19,1.42.15.77.25,1.55.42,2.32.18.82.4,1.61.65,2.41.33,1.05.77,2.05,1.24,3.04.66,1.37,1.56,2.58,2.6,3.7.57.61.55.6,1.12.03.18-.19.16-.32.01-.49-.23-.27-.45-.53-.66-.81-.48-.62-.97-1.25-1.34-1.94-.52-.98-1.12-1.92-1.46-3-.24-.75-.48-1.5-.7-2.25-.18-.64-.25-1.3-.43-1.94-.17-.6-.29-1.21-.33-1.82-.04-.68-.26-1.34-.2-2.02,0-.12-.06-.18-.16-.24-.32-.19-.63-.39-.97-.6ZM48.3,34.47c0-.29,0-.67,0-1.05,0-.1.02-.21-.16-.16-.57.16-1.13.72-1.14,1.28-.01,1.13-.2,2.23-.4,3.34-.17.94-.4,1.85-.69,2.75-.41,1.29-.88,2.55-1.52,3.76-.58,1.1-1.26,2.13-2.03,3.09-.57.72-.6.74.07,1.35,0,0,.02.02.03.03.11.14.23.08.31-.02.87-1.07,1.73-2.17,2.37-3.4.72-1.39,1.39-2.81,1.88-4.31.3-.93.62-1.86.83-2.8.28-1.23.47-2.5.44-3.87ZM49.78,51.15s-.03-.05-.04-.07c-.35.12-.7.28-1.06.35-.78.15-1.58.11-2.37.07-.71-.04-1.39-.27-2.04-.58-1.09-.52-1.92-1.34-2.67-2.25-.12-.15-.18-.15-.3-.03-.73.78-1.54,1.47-2.35,2.15-.27.23-.13.35.08.46.5.26,1,.51,1.51.76,1.07.53,2.22.82,3.39.98.81.11,1.64.06,2.45-.15.82-.21,1.6-.49,2.32-.94.37-.23.72-.5,1.08-.75ZM49.2,22.81c.06.09.1.17.16.22.45.39.64.88.6,1.48-.03.39-.07.77-.21,1.13-.29.75-.62,1.49-1.5,1.74-.32.09-.65.14-.99.14-.17,0-.3.03-.18.24.1.18.05.38.05.58,0,.24.03.31.27.15.32-.21.63-.43.96-.63,1.71-1.05,3.41-2.12,5.09-3.21.2-.13.54-.19.49-.58-.06-.39.16-.61.52-.73,1.11-.39,2.21-.8,3.32-1.2-.16-.33-.57-.42-.73-.35-.36.17-.59.06-.85-.11-.2-.13-.36-.38-.62-.09-.06.07-.15,0-.22-.02-.24-.06-.44-.19-.63-.34-.09-.07-.14-.14-.27.04-.19.25-.35.53-.58.76-.73.73-1.53,1.23-2.62,1.19-.7-.03-1.34-.28-2.05-.4ZM50.47,31.32c1.09-.71,2.08-1.36,3.1-1.97.52-.31.61-.7.47-1.12-.16-.48-.1-.94-.11-1.41-.02-.59.01-1.18-.14-1.79-.97.61-1.92,1.22-2.87,1.82-.13.08-.21.16-.22.33-.01.43-.07.86-.11,1.29-.08.91-.07,1.84-.13,2.85ZM21.44,31.23c0-.28.01-.49,0-.7-.06-.97-.27-1.94-.21-2.92,0-.08,0-.16,0-.23-.02-.29-.13-.48-.4-.65-.84-.52-1.67-1.05-2.46-1.65-.08-.06-.15-.13-.24-.1-.11.03-.13.16-.12.26.1.97-.15,1.93-.15,2.9q0,.84.67,1.29c.13.09.27.15.4.23.8.53,1.61,1.05,2.51,1.57ZM35.14,47.1c-.23-.04-.43-.03-.64-.07-.73-.15-1.43-.39-2.16-.53-.91-.17-1.69-.56-2.08-1.49-.06-.14-.06-.35-.24-.42-.49-.19-.71-.61-.88-1.06-.04-.11-.09-.14-.19-.14-.45,0-.9,0-1.36,0,1.07,2.39,2.65,4.31,4.54,5.99.3-.42.53-.89,1.13-.94.12-.01.23-.15.29-.32.14-.42.55-.76.88-.66.4.12.55-.09.72-.37ZM34.33,47.94c-.1.09-.23.18-.27.39-.06.29-.22.51-.56.55-.15.02-.31.1-.45.17-.46.24-.52.7-.14,1.04.12.11.26.21.39.32.77.67,1.63,1.22,2.46,1.81.17.12.31.09.46-.03.45-.34.95-.63,1.37-1.01.42-.37,1-.59,1.15-1.25.06-.28.13-.43-.19-.52-.25-.06-.37-.24-.35-.49.03-.31.27-.62,0-.94-.01-.01,0-.05,0-.08.02-.09.13-.21,0-.28-.1-.05-.23-.02-.32.08-.18.21-.38.15-.58.03-.25-.15-.53-.32-.79-.22-.5.2-1.13-.01-1.54.49-.09.1-.3.07-.44,0-.05-.02-.08-.1-.21-.09ZM41.49,16.59c-.14.09.03.34-.18.34-.16,0-.25-.15-.33-.29-.05-.1-.11-.21-.15-.31-.03-.07-.09-.14-.03-.22.06-.07.13-.05.21-.01.23.13.19-.06.15-.15-.05-.11-.15-.2-.23-.3-.04-.05-.13-.08-.09-.15.04-.08.13-.07.21-.04.06.02.12.13.18,0,.03-.06,0-.13-.04-.18-.11-.13-.22-.25-.32-.39-.04-.05-.07-.12-.03-.18.04-.05.09-.04.14-.03.35.12.72.75.64,1.12-.05.21.03.38.09.55.02.05.15.03.21-.02.21-.18-.01-.35-.03-.52.11-.13.58.06.29-.36-.05-.07-.18-.11-.08-.21.08-.07.2-.06.29,0,.13.11.25.27.42.09.15-.15,0-.28-.07-.42-.04-.07-.16-.13-.04-.23.09-.08.15.01.23.05.12.06.28.24.41.06.1-.14.07-.32-.12-.43-.07-.04-.12-.14-.18-.2-.09-.1-.88-.26-.99-.21-.06.03-.07.07-.06.13.05.32-.24.33-.41.44-.19.13-.3-.17-.49-.13,0,0-.06-.09-.04-.13.06-.18.22-.08.33-.1.07-.02.17.02.19-.09.02-.1-.09-.12-.13-.17-.07-.09-.28-.18-.23-.2.21-.06.18-.52.54-.31.05.03.15.14.29-.06.05-.06-.28-.05-.15-.19.13-.13.2.04.3.07.09.03.17.05.25.09.28.17.32.16.43-.13.02-.04.07-.07.12-.09.07-.02.13.02.16.08.06.14.14.29.09.45-.09.32.12.46.36.49.2.02.48.37.63-.08.03-.09.11-.02.17-.02.26-.02.54.39.78-.05.01-.02.14.03.22.04.1.01.21.03.31.03.19,0,.21-.11.09-.22-.56-.51-1.18-.92-1.92-1.08-.2-.04-.45.06-.68-.07-.09-.06-.28-.06-.22.17.03.11-.03.16-.15.17-.41.07-.76-.11-1.1-.28-.08-.04-.16-.13-.1-.22.04-.07.15-.07.21-.02.2.17.44.15.64.22.15-.42-.06-.44-.39-.5-.35-.07-.64-.28-1.04-.06-.21.12-.43.34-.74.25-.04-.01-.06.07-.06.12.02.24.09.51-.27.58-.06.01-.03.07-.01.09.1.15.13.31.12.48,0,.05.02.1.08.1.07,0,.09-.06.09-.11,0-.09-.02-.18-.02-.27,0-.06,0-.14.07-.16.08-.02.12.04.15.1.14.27.25.53.2.86-.04.27-.12.53,0,.85.09.25.19.66,0,.89-.2.25-.24.49-.23.77,0,.43-.39.65-.52,1.01-.03.07-.13.07-.21.07-.34,0-.56.29-.61.49-.06.24-.05.61.27.81.25-.31,0-.7.19-1.01.27.2.2.53.35.76.37-.28.05-.75.29-1.08.12.11.07.23.09.32.04.18.17.49.24.46.21-.09.23-.35.16-.57-.05-.14-.05-.28-.04-.42,0-.11-.07-.26.11-.33.26.37-.01.91.39,1.19.22-.23.34-.47.13-.78-.04-.05-.03-.18.04-.21.12-.06.14.08.2.14.03.04.06.09.08.13.04.09-.04.28.15.24.13-.03.11-.23.06-.31-.17-.24-.12-.5-.13-.75,0-.12,0-.24-.15-.31ZM22.61,24.69c.06.21.15.32.16.47.04.81.59,1.46,1.36,1.68.52.15.99.23,1.56.09.57-.14,1.16-.27,1.74-.41.47-.11.93-.28,1.4-.35.89-.15,1.79-.09,2.69-.07.38.01.76.05,1.14.14.39.09.81.12,1.29.29-.29-.44-.5-.79-.48-1.22,0-.06,0-.15-.1-.11-.23.1-.22-.08-.28-.2-.21-.37-.42-.47-.76-.38.31.58.23,1.05-.21,1.21-.38.14-.76-.06-1.09-.22-.21-.1-.31-.27-.47.03-.07.13-.23.11-.35.06-.07-.03-.08-.11-.04-.17.2-.24.23-.55.36-.83.06-.14.16-.2.3-.19.12.01.21.07.24.21.05.2.13.38.22.66.01-.23.04-.37.02-.5-.03-.31.07-.44.4-.35.09.03.23.07.31-.14-.43-.05-.84-.21-1.23-.23-.55-.02-1.11-.03-1.68.09-.81.17-1.63.32-2.44.49-.62.13-1.24.28-1.87.34-.73.07-1.45-.09-2.2-.41ZM31.65,56.04c.31,0,.55-.03.79,0,.6.08,1.19.2,1.63.66.25.26.18.48-.16.6-.23.08-.46.15-.67.25-.12.05-.22.16-.18.31.04.15.16.15.28.15.35,0,.7,0,1.05,0,.17,0,.2-.07.23-.23.14-.68.1-1.38.17-2.06.11-1.06.16-2.15.11-3.23,0-.12,0-.23-.11-.31-.36-.26-.73-.53-1.11-.81-.42,1.66-1.1,3.17-2.03,4.66ZM38.78,58.02c-.22-.28-.45-.47-.72-.64-.17-.11-.44-.21-.41-.47.03-.25.2-.41.43-.54.42-.25.86-.2,1.31-.21.78,0,.78,0,.44-.68-.05-.1-.1-.21-.15-.31-.61-1.2-1.16-2.43-1.43-3.79-.47.24-.82.6-1.22.87-.09.06-.13.13-.06.23.1.14.06.3.06.46.03,1.47.06,2.93.07,4.4,0,.22.18.37.17.59,0,.08.08.1.14.08.44-.13.89-.05,1.38.01ZM34,40.25c.61-.13,1.21-.3,1.84-.23.33.04.65.14.91.35.2.16.18.46.28.68.24.56.67.8,1.11.57-.47-.3-.61-.71-.51-1.26.08-.41,0-.82-.15-1.31-.1.4.03.73-.12,1.04q-.26-.31-.26-.66c-.02-1.08-.54-1.59-1.47-1.46-1.03.14-1.81,1.22-1.63,2.27ZM39.69,31.33c.27.16.53.1.73.27.8.67,1.03,1.43.67,2.44-.07.18-.04.19.11.21.47.04.89-.06,1.15-.49.1-.16.19-.19.36-.22.53-.08.71-.33.72-.88,0-.17-.04-.34.15-.49.41-.34.42-.44.19-.95-.28-.62-.96-.84-1.38-.43.34.05.6.21.86.42.15.12.16.27.08.37-.11.15-.24,0-.31-.08-.22-.26-.48-.3-.8-.22.17.2.37.52.42.69.04.13.11.32-.04.38-.19.08-.26-.14-.31-.26-.25-.54-.4-.63-.99-.55.14.24.34.44.35.72,0,.11.07.27-.07.31-.18.06-.18-.12-.23-.23-.35-.73-.81-1.21-1.65-1.01ZM52.12,21.1c-.37.34-.75.55-1.19.45-.38-.09-.78-.14-1.15-.28-.67-.26-1.59.15-1.95.67-.04.06-.11.14-.04.21.04.03.13.04.19.02.22-.07.42-.05.65-.02.56.07,1.08.28,1.63.41.68.16,1.35.32,2.02-.01.38-.19.76-.38,1.03-.74-.42-.23-1.23.33-1.18-.7ZM39.38,49.73c.32-.17.51-.43.74-.64.69-.62,1.32-1.3,1.9-2.03.11-.14.42-.27.29-.48-.1-.16-.37-.2-.57-.29-.06-.02-.13-.1-.17.04-.08.26-.3.22-.49.2-.39-.05-.67.1-.9.4-.11.14-.22.2-.04.4.23.27.05.55-.18.73-.21.16-.45.17-.62-.12-.1-.17-.28-.26-.49-.27-.09.35.17.7-.02,1.03-.12.21-.02.29.16.38.26.13.43.33.4.66ZM42.75,11.08c.39.31.77.48,1.15.67.07.04.15.06.22,0,.06-.05.06-.14.03-.18-.2-.19-.38-.47-.61-.53-.7-.19-1.41-.32-2.14-.35-.56-.02-1.12-.04-1.67.14-.65.22-1.28.52-1.24,1.48.02.62.29,1.16.49,1.72.24.69.11,1.23-.43,1.67-.04.03-.12.07-.04.18.16-.14.33.08.53-.03.42-.23.56-.67.28-1.2-.24-.46-.28-.97-.39-1.46-.09-.39.17-.79.17-1.2,0-.11.12-.22.2-.32.22-.29.56-.39.86-.56.06-.04.16-.04.22.03.05.05.04.13-.02.17-.17.12-.02.17.05.22.16.12.34.16.53.07-.02-.14-.11-.2-.19-.26-.07-.05-.14-.11-.09-.18.06-.09.14-.05.23,0,.2.1.35.25.47.44.18.29.51.28.68-.02.11-.2.22-.38.46-.14.05.05.15.04.24.07.01-.14.02-.25.03-.43ZM38.48,27.08c1.92.78,4.23.64,5.83-.31-.44-.09-.86-.22-1.28-.25-.66-.05-1.33-.02-2-.03-.09,0-.16.03-.16.13-.02.41-.42.34-.49.23-.29-.39-.62-.2-.93-.13-.33.07-.69.1-.97.36ZM29.51,16.84c.09.45-.23.81-.16,1.23.01.07-.03.17.07.19.1.02.11-.08.13-.15.07-.27.14-.54.2-.82.03-.13.12-.23.22-.24.15,0,.11.15.11.24,0,.38-.01.76,0,1.13.02.35.14.79.41.89.3.11.63.08.71.52-.2-1.18-.08-2.3.21-3.44-.34.06-.64.01-.82-.43.03.5-.69,1.05-1.09.87ZM33.44,14.26c.46.17.69.61,1.16.42.04-.01.11.01.14.04.38.32.78.6.8,1.19.02.53.59.8.95.51.05-.04.13-.05.08-.17-.2-.46-.38-.95-.82-1.22-.38-.23-.51-.48-.45-.91.03-.23-.03-.49-.33-.53-.29-.03-.59-.01-.88-.02-.14,0-.25,0-.21.2.05.26-.1.4-.44.48ZM48.36,24.55c.25.05.5-.08.76-.22.28-.15.29-.36.16-.58-.26-.42-.64-.74-1.07-.98-.13-.07-.27-.08-.41,0-.29.18-.51.66-.44.94.15.53.5.85,1,.84ZM30.86,14.67c-.16-.07-.17-.25-.39-.22-.27.03-.61.11-.59-.36,0-.08-.08-.08-.14-.1-.32-.09-.99.14-1.19.43-.06.09-.24.19-.11.33.11.12.24.12.37,0,.08-.08.2-.08.28,0,.07.06.02.15-.04.2-.11.12-.17.27-.07.38.11.14.25.04.38-.05.08-.05.19-.07.26-.01.13.1-.02.17-.05.25-.03.09-.06.23.1.19.1-.03.21-.11.27,0,.05.09-.05.19-.11.27-.06.08-.09.16-.01.24.06.06.13.07.21.06.1-.02.13-.08.13-.17,0-.09.01-.18,0-.27-.07-.48.14-.81.56-1.03.04-.02.08-.06.16-.11ZM15.13,23.09c.26.51.66.81.92,1.23.3.48.67.69,1.24.62.27-.03.33-.11.31-.35-.05-.49-.3-.78-.78-.9-.1-.02-.19-.05-.29-.09-.44-.18-.9-.33-1.41-.51ZM24.58,23.51c.02-.19,0-.37-.09-.53-.1-.17-.32-.37-.47-.21-.37.4-.84.69-1.19,1.11-.12.14-.1.34.12.4.31.08.6.24.92.26.1,0,.21.04.28-.07.19-.3.49-.55.43-.96ZM56.91,23.06l-.05-.05c-.64.24-1.27.5-1.91.73-.3.1-.55.2-.47.59.02.12-.04.22-.1.32-.06.11-.05.17.13.15.26-.03.53-.14.77.08.04.04.09.02.13-.02.5-.6,1-1.2,1.49-1.8ZM24.15,28.81c-.14,1.19.24,4.3.59,4.54,0-.15,0-.28,0-.41,0-1.13-.03-2.27.01-3.4.02-.48-.21-.64-.6-.73ZM27.8,26.95c.7.4,1.42.49,2.1.7.49.15.61.02.61-.49,0-.12-.03-.24,0-.35.07-.23-.04-.23-.22-.25-.84-.06-1.62.18-2.49.39ZM47.72,28.94c-.46.11-.63.37-.6.84.03.43.1.85.09,1.28-.02.63-.13,1.26-.08,1.9,0,.08-.05.21.07.23.11.02.18-.09.2-.2.02-.06,0-.13.01-.19.05-.51.16-1.02.15-1.53-.02-.77.3-1.52.15-2.32ZM40.27,34.46c.51-.44.53-.92.54-1.44,0-.35-.12-.55-.45-.61-.27-.05-.6-.09-.71.23-.1.29-.19.63.14.88.27.21.5.45.49.93ZM33.76,38.31c1.23-1.08,2.53-1.44,3.45-.13.14-.26-.09-.45-.13-.67-.07-.42-.36-.61-.79-.64-.88-.06-1.57.37-2.27.81-.26.16-.35.34-.26.63ZM28.32,17.14c-.06.51.48.07.56.36.02.06.07.08.12.06.02,0,.03-.04.04-.06.13-.35.48-.62.32-1.09-.06-.17-.28-.2-.24-.41.02-.11-.04-.17-.16-.15-.09.01-.18-.02-.26.11-.23.37-.31.78-.38,1.19ZM43.12,15.89c-.08-.02-.12.06-.17.07-.43.08-.62.4-.46.83.11.28.24.55.36.83.15,0,.03-.36.31-.21.2.1.25-.01.27-.23.05-.48-.3-.84-.32-1.29ZM26.78,16.22c.18-.06.22-.18.28-.28.24-.37.34-.84.83-1.02.11-.04.13-.24-.03-.31-.62-.29-1.52.33-1.5,1.09.24-.31.42-.61.7-.82.08-.05.12-.21.24-.11.09.08,0,.18-.06.27-.25.34-.36.73-.46,1.17ZM44.94,16.17c-.05-.53-.25-.93-.6-1.36.67.1.79.71,1.18,1.01-.06-.84-.8-1.37-1.56-1.14-.07.02-.12.04-.12.12,0,.09,0,.17.12.21.24.08.37.29.51.49.15.2.2.47.48.66ZM38.36,17.62c.18-.04.48.15.51-.1.05-.34.24-.32.46-.31.14,0,.32-.04.23-.2-.12-.23-.03-.29.15-.37.11-.05.16-.14.11-.25-.06-.15-.15-.08-.25-.03-.14.06-.28.11-.45.12-.21,0-.62-.14-.32.35.02.03,0,.11-.02.15-.17.19-.2.48-.43.65ZM39,34.48c-.11.19,0,.38.15.29.27-.15.69,0,.81-.37.07-.21-.39-.56-.67-.56-.54,0-.41.33-.29.63ZM35.45,42.35c0-.59,0-1.13,0-1.67,0-.17-.1-.19-.22-.2-.17,0-.11.14-.11.22,0,.29.05.58-.02.86-.08.35.07.55.34.79ZM38.08,34.8c.24,0,.48-.11.49-.32,0-.21-.16-.43-.46-.42-.27,0-.46.1-.45.4,0,.28.21.32.42.34ZM31.7,15.87c.4-.26.51-.63.69-.96.04-.07.04-.17-.03-.21-.06-.04-.14,0-.21.05-.4.25-.49.63-.46,1.13ZM32.83,19.35c.05-.59.05-1.07-.39-1.47-.09.56.09.98.39,1.47ZM33.08,22.1c-.07.53.24,1.11.62,1.21-.03-.48-.28-.83-.62-1.21ZM32.6,15.69c-.2.57-.11,1.1.23,1.41.12-.52-.15-.95-.23-1.41ZM31.79,20.33c.15-.49.28-.99.11-1.53-.31.51-.11,1.03-.11,1.53ZM37.36,25.3c.18-.18.59-.14.53-.49-.02-.12-.27-.32-.43-.24-.32.15-.08.47-.1.72ZM20.59,20.04c-.3,0-.2-.28-.31-.42-.12.15-.26.19-.41.25-.19.07-.17.15-.03.29.29.29.47-.01.75-.12ZM34.02,15.32c-.28-.33-.61-.57-1.12-.65.29.48.7.57,1.12.65ZM33.23,21.27c-.02-.48-.17-.92-.48-1.29-.02.5.18.92.48,1.29ZM32.09,16.34c-.41.45-.47.7-.35,1.45.29-.45.19-.99.35-1.45ZM35.74,20.57c.12-.39,0-.7-.12-1.01-.02-.06-.04-.23-.17-.18-.16.06-.09.15-.03.27.05.11.03.25.04.38.02.2.03.4.28.54ZM39.63,19.28c.03.3-.54-.11-.41.34.03.11-.11.33.14.31.31-.02.3-.33.4-.54.03-.05-.03-.12-.13-.11ZM32.85,23.07c-.05.52.06.92.36,1.28-.1-.41-.04-.86-.36-1.28ZM33.64,16.91c.08-.62-.22-.93-.56-1.23.08.42.3.77.56,1.23ZM40.19,14.87c-.44.32-.31.76-.37,1.15-.01.07-.03.13.06.14.06,0,.11-.02.12-.07.06-.4.12-.8.18-1.22ZM33.82,24.15c.2.47.47.8.77,1.13-.12-.44-.29-.84-.77-1.13ZM36.07,19.18c-.08-.48-.45-.68-.71-.95.1.4.27.75.71.95ZM53.66,21.2c-.25-.29-.52-.39-.85-.27-.09.03-.12.08-.12.17,0,.11.06.11.15.11.26-.01.52,0,.82,0ZM42.22,18.1s.03,0,.04-.01c0-.3,0-.6,0-.89,0-.11.03-.26-.16-.24-.18.02-.13.16-.11.27.07.29.15.58.23.87ZM38.82,18.31c-.15.22-.39.4-.33.7.02.09-.05.25.09.26.14,0,.23-.12.23-.26,0-.23,0-.46,0-.7ZM36.34,25.69c-.22.46-.12.87-.1,1.27-.01-.4.28-.78.1-1.27ZM39.63,11.87c.21.07.39.25.6.06.08-.07.04-.19-.07-.27-.25-.18-.37.04-.54.2ZM32.31,22c.29-.42.14-.79.18-1.18-.28.36-.21.72-.18,1.18ZM44.4,12.5c-.24-.36-.61-.24-.88-.38-.06-.03-.08.09-.01.16.23.26.54.16.89.21ZM34.67,17.84c.13-.47-.09-.69-.46-.83,0,.34.24.55.46.83ZM33.95,25.24c-.12.38.03.67.31.9-.1-.3-.21-.6-.31-.9ZM31.95,24.92c-.29,0-.17.25-.24.37-.07.13.06.18.17.18.2.01.27-.14.28-.29.01-.13-.06-.25-.21-.26ZM43.82,30.55c.03-.2,0-.37-.18-.47-.16-.09-.33-.09-.49.08.24.14.45.26.68.39ZM36.13,20.92c-.15.45.06.77.12,1.11.06-.35.04-.69-.12-1.11ZM32.04,11.81c-.14-.08-.12-.32-.28-.27-.14.04-.28.17-.26.34.01.12.15.15.25.12.1-.04.19-.12.29-.18ZM34.93,26.15c.13.29.15.66.52.8-.19-.26-.25-.59-.52-.8ZM38.07,33.58c-.48-.15-.59-.09-.59.3.18-.09.36-.18.59-.3ZM39.6,12.05c-.1.04-.16.12-.14.2.03.18.19.27.32.36.02.02.18-.03.15-.11-.07-.17-.18-.33-.33-.45ZM37.7,47.08c.35.07.61-.01.91.11-.27-.43-.55-.26-.91-.11ZM25.56,18.25c-.35-.14-.51.1-.77.22.34.12.53-.01.77-.22ZM39.01,35.21c-.19-.15-.4-.24-.62,0h.62ZM40.14,19.17c.16.05.24.06.26.18.01.09-.1.27.08.27.19,0,.12-.19.13-.3,0-.06,0-.13,0-.2-.14.02-.26.03-.46.05ZM52.75,20.37q-.23-.26-.7-.31c.1.05.21.11.32.11.15,0,.19.16.38.2ZM30.55,15.52q.38-.17.18-.43c-.09.12-.23.21-.18.43ZM32.22,14.06c.18-.02.34.06.47-.07.04-.04,0-.11-.05-.13-.17-.05-.33-.05-.42.19ZM38.01,24.04c-.05.13.01.2.12.25.01,0,.04-.02.06-.03-.02-.1-.09-.16-.18-.21ZM36.11,19.25s.04.02.06.03c0,0,.02-.02.02-.02-.02-.01-.04-.03-.06-.04,0,0-.01.02-.02.03ZM34.78,16.75s-.03.01-.03.02c0,.02.02.04.03.06,0,0,.03-.02.03-.02,0-.02-.02-.04-.02-.06Z"/>
    <path class="cls-2" d="M33.11,35.07c-.42.09-.83-.04-1.24-.04-.43,0-.82-.04-1.15-.32-.09-.07-.16-.04-.25-.03-.48.05-.88-.1-1.21-.45-.17-.18-.36-.31-.59-.43-.4-.19-.63-.59-.69-1.01-.04-.32-.19-.57-.33-.82-.11-.21-.15-.43-.07-.59.16-.32.12-.63.12-.95-.01-.48.4-.84.84-.92.3-.06.51.21.7.42.12.13.18.3.4.32.13.01.08.16.11.25.09.33.27.46.62.55.56.14,1.02-.18,1.54-.17.57.01,1.47.66,1.61,1.21.07.27.22.53.16.83-.02.11.03.18.13.25.25.16.45.35.39.69-.02.13.11.14.19.15.21.04.26.17.27.37,0,.23-.1.41-.3.45-.41.08-.86,0-1.24.24ZM32.16,31.43c.08.1.17.07.28.03-.09-.03-.17-.05-.25-.07-.41-.22-.97-.09-1.26.29-.55.73-.58,1.57-.12,2.38.2.36.45.63.87.58.54-.07,1.12.18,1.61-.23.04-.03.13-.02.19,0,.21.09.42.04.65.05-.14-.17-.39-.33-.37-.45.06-.44-.25-.5-.51-.68-.4-.27-.76-.51-1.11.05-.02.03-.07.03-.1.05-.35.11-.53.39-.5.74,0,.09.06.23-.07.27-.11.04-.22-.04-.27-.12-.22-.37-.43-.75-.49-1.19-.11-.76.47-1.67,1.46-1.71ZM28.18,30.33c-.07.45-.15.89-.22,1.34,0,.04-.01.1,0,.11.38.36.36.88.55,1.32.07.17.19.28.35.34.25.09.46.22.62.44.13.18.32.31.54.35.1.02.23.03.3-.03.09-.08,0-.21-.05-.28-.18-.25-.18-.52-.21-.81-.05-.62.12-1.16.51-1.67-.41-.07-.73-.04-.95.33-.06.1-.07.35-.27.25-.19-.1-.07-.29-.04-.44.02-.12.12-.16.19-.23.06-.06.18-.12.12-.22-.05-.08-.15-.12-.28-.09-.24.06-.46.13-.6.37-.06.11-.18.31-.32.19-.17-.14-.01-.29.09-.43.21-.28.51-.42.85-.6-.32-.15-.6-.21-.85-.03-.35.25-.36.06-.34-.22.22-.04.37-.2.52-.35-.25,0-.49,0-.51.35ZM31.17,33.2c.2-.25.65.03.65-.39,0-.16-.06-.63-.41-.52-.35.12-.3.5-.24.91Z"/>
    <path class="cls-2" d="M34.05,31.66c.13-.01.25-.02.46-.04-.38-.39-.43-.82-.45-1.29-.02-.56.21-.95.61-1.27.11-.09.19-.12.06-.29-.12-.15-.05-.31.21-.31.43.01.87,0,1.3,0,.09,0,.19,0,.24.08.1.18.24.14.41.09.13-.04.29-.07.4.06.1.13,0,.28-.06.35-.11.12-.05.16.02.24.46.5.39,1.09.28,1.69-.02.12-.07.23.08.23.4,0,.3.28.24.45-.22.64-.54,1.23-1.16,1.55-.25.13-.24.29-.15.47.13.24.15.45-.01.67-.02.03-.03.07-.04.11-.03.18.1.46-.27.41-.28-.03-.56-.31-.57-.58,0-.09-.01-.18,0-.27.04-.29-.07-.44-.36-.54-.6-.2-1.25-1.2-1.23-1.82,0,0,0,0,0,0ZM36.63,29.31c0,.06,0,.13.07.16.18.63.19,1.24-.2,1.81-.04.06-.02.15-.03.22-.01,0-.03.02-.04.02,0,0,.02,0,.02,0,0,0,0-.02.01-.03.16,0,.25-.1.37-.19.25-.19.21-.48.3-.73.15-.4-.03-.93-.43-1.12,0-.07,0-.13-.09-.15.02-.15-.02-.24-.2-.22.04.11.11.18.21.21ZM35.06,31.43s.04.05.05.05c.05-.04.01-.05-.02-.07-.25-.63-.33-1.29-.21-1.97-.39.32-.49.73-.4,1.18.07.35.15.72.58.82ZM37.41,31.74c-.58.07-.74.48-.91.87-.03.06-.04.17.04.21.07.03.15,0,.22-.05.3-.27.46-.62.65-1.02ZM35.72,33.21c-.25-.45-.56-.74-1.02-.93.16.51.47.8,1.02.93ZM36.09,34.35c.14-.25.19-.51,0-.84v.84Z"/>
    <path class="cls-2" d="M21.14,15.86c-.09.02-.11.08-.08.16-.05,0-.1,0-.15-.02-.1-.02-.25.07-.3-.1-.04-.13.07-.21.14-.3.37-.47.91-.69,1.42-.96.09-.05.2-.02.27-.13.03-.05.09-.04.14,0,.06.05.05.12,0,.17-.05.06-.11.11-.16.17-.08.1-.28.19-.16.34.1.13.27.02.4-.04.24-.11.46-.24.69-.36.06-.03.11-.08.17-.02.07.08.01.15-.04.2-.13.14-.32.23-.33.46,0,.08-.16.12-.02.24.12.11.24.15.34.07.18-.14.43-.1.6-.25.06-.06.16-.06.21,0,.09.09-.01.13-.07.17-.09.07-.16.16-.08.26.11.15.17-.02.25-.05.11-.04.22-.08.34-.08.15,0,.21-.26.37-.13.15.14-.09.2-.1.32-.01.13.01.22.16.12.07-.04.14-.11.2-.02.05.09-.02.18-.09.23-.24.17-.53.19-.78.13-.24-.06-.53.09-.7-.06-.28-.24-.55-.16-.85-.16-.37,0-.38-.27-.32-.58-.3.12-.58.19-.89,0-.21-.14-.41.02-.56.2Z"/>
    <path class="cls-2" d="M38.12,45.64c-.36.46-.62.78-1.18.73-.62-.06-1.25-.05-1.88,0-.47.04-.84-.12-1.19-.37-.18-.13-.26-.34-.2-.55.06-.21.26-.1.4-.12.2-.02.44.06.44-.28,0-.11.1-.17.19-.15.37.06.36-.17.34-.42,0-.19.06-.33.29-.32.14,0,.29.02.35-.17.01-.03.13-.06.17-.04.24.12.45.3.72,0,.11-.12.28.12.46.14.31.03.08.21.07.34-.01.22-.11.5.3.46.21-.02.18.17.16.28-.07.37.01.58.55.47ZM36.7,44.55c-.02-.08-.11-.05-.18-.05-.07,0-.13.03-.11.12.02.11.11.09.18.09.08,0,.12-.04.11-.15Z"/>
    <path class="cls-2" d="M50.72,16.02c-.18-.23-.33-.55-.71-.26-.07.05-.2.02-.31.02-.24.01-.51-.1-.53.34-.01.23-.3.15-.47.13-.2-.02-.37-.04-.52.13-.07.08-.21.12-.33.09-.2-.06-.37-.05-.52.12-.07.08-.82-.15-.89-.25-.04-.06-.08-.15-.03-.22.06-.1.12-.02.18.02.17.1.22,0,.18-.15-.02-.1-.08-.19-.02-.31.31.11.6.33.98.32-.03-.22-.19-.25-.28-.35-.05-.05-.11-.08-.07-.15.04-.06.12-.06.18-.03.2.13.44.14.64.27.13.08.36.13.49-.05.12-.17-.02-.3-.12-.43-.09-.12-.33-.23-.23-.36.14-.18.28.08.43.12.07.02.12.1.2.12.18.06.42.21.54.04.12-.16-.13-.27-.26-.37-.11-.08-.13-.18-.05-.33.72.43,1.64.59,2.02,1.54-.21,0-.35,0-.49,0,0,0,0,0,0,0Z"/>
    <path class="cls-2" d="M33.87,49.84c.56.13.78-.17.96-.59.18-.41.31-.42.73-.2.1.05.08-.05.12-.08.19-.16.39-.18.54.02.11.15.11.09.19-.02.12-.18.31-.16.45-.02.07.06.11.12.2.14.16.03.19.1.1.27-.17.31-.08.47.24.48.3,0,.29.19.22.36-.13.36-.44.56-.78.59-.65.04-1.31.05-1.95,0-.52-.04-.78-.46-1.02-.96Z"/>
    <path class="cls-2" d="M44.27,25.77c-.38.37-.82.04-1.23.09-.12.01-.08-.17-.09-.26-.02-.15-.13-.12-.23-.14-.13-.02-.12.05-.12.13,0,.14,0,.27-.19.29-.19.01-.22-.14-.24-.29-.46.37-.79.4-1.06.08-.25-.3-.2-.73.13-1,.29-.23.63-.14,1.01.31.01-.21,0-.44.27-.41.18.01.38-.08.53.06.16.15.3.13.5.1.6-.1.81.07.87.61.02-.01.05-.02.05-.04.04-.39.13-.61.61-.39.21.1.47.2.73.2.11,0,.15.08.15.19,0,.14.03.27.13.4.14-.14.1-.52.37-.4.28.13.03.38,0,.58-.02.12-.08.24-.14.36-.05.09,0,.28-.17.26-.15-.02-.29-.11-.32-.29-.02-.12-.05-.25-.07-.37-.05.02-.09.03-.09.03-.01.34-.08.56-.5.33-.16-.09-.38-.09-.57-.08-.23,0-.31-.08-.27-.3.06-.04.08-.08.03-.14-.02.03-.05.07-.07.1ZM41.85,25.21c0-.19-.05-.3-.27-.29-.23,0-.23.16-.24.32,0,.19.06.3.27.29.22,0,.24-.15.24-.33ZM43.62,25.39c0,.11.03.26.19.24.16-.02.23-.17.25-.34.01-.16-.07-.27-.21-.27-.19,0-.23.17-.23.37ZM45.32,25.33c.16.7-.46.14-.59.39.22.01.4.28.59.14.1-.07.18-.33,0-.53ZM45.1,25.3c-.09-.04-.18-.1-.26,0h.26Z"/>
    <path class="cls-2" d="M39.52,24.78c.05,0,.12-.03.15,0,.23.17.44.4.63-.05.03-.06.18-.05.25,0,.09.06.06.16,0,.24-.17.25-.36.5-.32.83,0,.09-.04.14-.14.14-.08,0-.12-.06-.11-.13.04-.32-.22-.45-.4-.62-.16-.14-.2-.26-.06-.42,0,0,0,0,0,0Z"/>
    <path class="cls-2" d="M27.14,25.17c-.03-.32.12-.37.37-.41.35-.06.71-.11,1.05-.16.54-.08,1.1-.11,1.65-.09.09,0,.15.03.15.14,0,.11-.08.13-.16.12-.22-.01-.21.07-.15.25.06.15.02.33.03.5,0,.16-.08.2-.22.2-.13,0-.19-.06-.19-.19,0-.14,0-.29,0-.43,0-.09,0-.19-.13-.18-.13,0-.19.05-.19.18,0,.13.02.24.11.36.07.08.06.23-.02.33-.07.1-.18.09-.28.07-.15-.03-.09-.16-.11-.26-.01-.07.03-.18-.09-.17-.09.01-.24,0-.23.15.03.35-.25.36-.43.34-.34-.05-.66.4-1.01.04-.16.21-.37.27-.62.33-.37.08-.72.22-1.07.36-.24.1-.42.1-.53-.17-.1-.24-.18-.47-.26-.71-.03-.08-.09-.19.06-.22.11-.02.23-.06.28.11.05.17.16.32.21.49.08.23.24.12.35.09.12-.04.23-.11.12-.32-.28-.54-.16-.71.44-.83.29-.06.57-.21.87.07ZM27.59,25.71c.29-.09.54.05.7-.15.07-.08.07-.27-.12-.39.15.55-.37.28-.58.54Z"/>
  </g>
  <path class="cls-1" d="M332.87,0c-28.93.03-57.86.02-86.8.02,0,.69-.02,1.38-.02,2.07,0,22.41,0,44.83,0,67.24,0,.23,0,.46,0,.69.74-.01,1.47-.03,2.21-.03,27.86,0,55.73,0,83.59,0,.69,0,1.39-.12,2.06.15v-.82c0-22.76,0-45.52.03-68.27,0-.89-.18-1.06-1.07-1.06Z"/>
  <g>
    <path class="cls-3" d="M304.22,35.35c0,1.23-.01,2.46,0,3.69,0-1.23,0-2.46,0-3.69,0-1.55-.01-3.11,0-4.66-.02,1.55,0,3.11,0,4.66Z"/>
    <path class="cls-3" d="M262.99,40.19c0,.65.09,1.08.9,1.07.78,0,.94-.39.94-1.06-.03-2.16-.03-4.32-.04-6.49,0-.3-.16-.66.3-.95.19.51.36.95.52,1.39.73,2.04,1.46,4.07,2.18,6.11.2.55.4,1.01,1.14,1.01.72,0,.97-.38,1.17-.97.37-1.11.78-2.2,1.18-3.3.53-1.48,1.06-2.96,1.6-4.45.27,2.59.28,5.11.26,7.64,0,.65.11,1.08.91,1.06.7-.02.88-.38.88-.99-.01-3.24-.01-6.49,0-9.73,0-.64-.25-.87-.91-.94-1.35-.14-2.11.22-2.51,1.67-.67,2.43-1.61,4.8-2.45,7.24-.43-.32-.43-.73-.55-1.08-.78-2.29-1.61-4.57-2.33-6.88-.46-1.47-1.59-.85-2.47-.9-1.02-.06-.69.8-.7,1.33-.03,3.07,0,6.14-.02,9.21Z"/>
    <path class="cls-3" d="M310.71,41.24c2.27.55,4.6-.18,5.7-1.87.25-.39.96-.91.14-1.38-.57-.32-1.22-.65-1.72.31-.61,1.16-1.72,1.53-2.99,1.39-1.33-.14-2.24-.86-2.7-2.12-.35-.96-.38-1.95-.28-2.94.15-1.53.74-2.82,2.31-3.28,1.48-.44,2.83-.24,3.7,1.29.45.79.99.08,1.45-.09.64-.22.37-.67.14-1.05-.62-1.02-1.56-1.61-2.7-1.87-4.02-.92-6.98,1.52-6.99,5.98,0,.17,0,.56.05.95.26,2.38,1.74,4.14,3.9,4.67Z"/>
    <path class="cls-3" d="M283.41,41.29c.77,0,.95-.39.95-1.06-.01-1.34-.03-2.68.03-4.02.07-1.43,1-2.34,2.28-2.34,1.19,0,1.83.76,1.86,2.32.03,1.38.03,2.77,0,4.15-.01.65.22.94.9.94.7,0,1.04-.22,1.02-.97-.03-1.43-.03-2.85,0-4.28.02-1.36-.18-2.63-1.53-3.33-1.39-.72-2.76-.62-4.05.3-.28.2-.59.69-.76-.12-.15-.7-.76-.4-1.19-.4-.56,0-.55.46-.55.85-.01,1.17,0,2.34,0,3.5h0c0,1.12.03,2.25,0,3.37-.02.77.26,1.09,1.06,1.08Z"/>
    <path class="cls-3" d="M291.24,31.27c.61,0,1.22.05,1.82,0,1.01-.09,1.39.3,1.37,1.32-.05,2.46-.01,4.93-.01,7.39,0,.67-.05,1.29.96,1.29.97,0,1.01-.54,1-1.25-.02-2.08,0-4.15,0-6.23q0-2.49,2.56-2.52c.17,0,.35-.01.52,0,.59.03.86-.2.86-.83,0-.63-.27-.83-.86-.82-1.34.02-2.69,0-4.04,0-1.39,0-2.78,0-4.17,0-.52,0-.81.18-.82.74-.01.57.16.92.8.91Z"/>
    <path class="cls-3" d="M295.43,29.63c1.35,0,2.69.01,4.04,0-1.34.02-2.69,0-4.04,0-1.39,0-2.78,0-4.17,0,1.39.01,2.78,0,4.17,0Z"/>
    <path class="cls-3" d="M302.31,40.25c0,.69.2,1.03.96,1.03.74,0,.98-.29.97-1.01,0-.41-.01-.82-.02-1.23,0-1.23,0-2.46,0-3.69,0-1.55-.01-3.11,0-4.66,0-.62-.04-1.08-.88-1.08-.8,0-1.05.28-1.05,1.06.03,3.19.02,6.39,0,9.58Z"/>
    <path class="cls-3" d="M279.72,39.37c0-.84,0-1.69,0-2.53,0-.56,0-1.12,0-1.69,0-.56,0-1.12.02-1.69.02-.67-.14-1.04-.93-1.03-.72,0-1,.24-1,.98.03,2.29.03,4.58,0,6.87,0,.74.29.98,1,.98.79,0,.94-.39.92-1.06,0-.28-.01-.56-.01-.84Z"/>
    <path class="cls-3" d="M279.72,39.37c0-.84,0-1.69,0-2.53,0-.56,0-1.12,0-1.69,0,.56,0,1.12,0,1.69,0,.84-.01,1.69,0,2.53Z"/>
    <path class="cls-3" d="M278.77,30.98c.74-.01,1.22-.34,1.23-1.15.01-.81-.48-1.18-1.22-1.18-.74,0-1.25.35-1.25,1.16,0,.8.46,1.15,1.25,1.17Z"/>
  </g>
</svg>