<?xml version="1.0" encoding="UTF-8"?>
<svg id="Capa_1" data-name="Capa 1" xmlns="http://www.w3.org/2000/svg" viewBox="0 0 291.56 61.74">
  <defs>
    <style>
      .cls-1 {
        fill: #37465a;
        stroke-width: 0px;
      }
    </style>
  </defs>
  <g id="oG5WQn.tif">
    <g>
      <path class="cls-1" d="M0,.03c9.51,0,19.01.02,28.52-.02.97,0,1.18.28,1.17,1.2-.03,8.94-.04,17.89,0,26.83,0,1.04-.22,1.34-1.31,1.33-9.02-.05-18.04-.03-27.07-.03-.44,0-.88.04-1.32.06V.03Z"/>
      <path class="cls-1" d="M0,32.54c.44-.03.88-.08,1.32-.08,8.95,0,17.89.02,26.84-.03,1.19,0,1.46.34,1.45,1.48-.05,8.87-.03,17.74-.02,26.6,0,.67.08,1.23-.94,1.23-9.47-.04-18.94-.03-28.41-.04-.08,0-.16-.02-.24-.03,0-9.71,0-19.42,0-29.13Z"/>
      <path class="cls-1" d="M47.58.02c4.51,0,9.03.02,13.54-.02.89,0,1.24.14,1.24,1.15-.04,9.03-.04,18.06,0,27.08,0,.9-.26,1.15-1.16,1.15-9.15-.03-18.3-.03-27.44,0-.82,0-1.1-.2-1.1-1.06.03-9.11.03-18.22,0-27.32,0-.8.24-1,1.02-1,4.63.03,9.27.02,13.9.02Z"/>
      <path class="cls-1" d="M101.21,39.57c1.18-2.88,2.35-5.72,3.51-8.56,2.4-5.86,4.82-11.71,7.19-17.58.33-.83.73-1.16,1.66-1.13,2.25.07,4.51.05,6.77,0,.73-.01.97.19.97.94-.02,11.72-.02,23.43,0,35.15,0,.82-.27,1.02-1.04.99-1.41-.06-2.82-.07-4.23,0-.94.05-1.22-.21-1.21-1.18.04-8.71.02-17.41.03-26.12,0-.32,0-.64,0-.97-.52-.03-.45.4-.55.65-3.53,8.82-7.06,17.64-10.56,26.47-.32.81-.69,1.17-1.63,1.16-3.38-.06-3.38-.01-4.64-3.11-3.29-8.09-6.57-16.19-9.86-24.29-.13-.31-.26-.62-.44-1.04-.29.51-.18.91-.18,1.28,0,8.63-.02,17.25.02,25.88,0,.98-.21,1.35-1.25,1.28-1.24-.09-2.5-.07-3.74,0-.86.05-1.08-.25-1.08-1.08.03-5.42.02-10.83.02-16.25,0-6.18.02-12.36-.02-18.54,0-.91.2-1.26,1.19-1.22,2.25.08,4.51.08,6.77,0,.95-.03,1.4.24,1.76,1.15,3.28,8.36,6.61,16.69,9.94,25.03.14.35.16.78.62,1.09Z"/>
      <path class="cls-1" d="M62.22,47.14c0,4.45-.02,8.9.02,13.35,0,.89-.15,1.24-1.16,1.24-9.06-.04-18.12-.04-27.18,0-.93,0-1.13-.27-1.13-1.16.03-8.98.04-17.96,0-26.94,0-.99.33-1.18,1.24-1.18,9.02.03,18.04.03,27.06,0,.98,0,1.19.31,1.18,1.22-.04,4.49-.02,8.98-.02,13.47Z"/>
      <path class="cls-1" d="M285.1,14.92c0,1.57-.02,3,0,4.44.02,1.11-.48,2.58.19,3.25.73.74,2.22.17,3.37.23.64.04,1.29.05,1.93,0,.76-.06.98.25.95.97-.05,1.08-.04,2.17,0,3.25.03.69-.24.91-.92.89-1.53-.04-3.06.02-4.59-.03-.74-.02-.96.21-.95.95.04,4.01-.01,8.02.04,12.03.04,3.36,2.22,4.78,5.36,3.48,1.04-.43,1.12-.12,1.07.77-.05,1-.05,2.01,0,3.01.04.69-.25,1.03-.88,1.21-2.12.64-4.27.84-6.44.35-3.39-.75-5.32-3.26-5.4-7.17-.09-4.49-.07-8.99-.02-13.48.01-.98-.3-1.2-1.22-1.18-2.38.06-4.75.07-7.13,0-.93-.03-1.13.27-1.12,1.15.04,6.38,0,12.76.04,19.13,0,.95-.25,1.25-1.2,1.2-1.36-.08-2.74-.07-4.11,0-.87.04-1.07-.26-1.07-1.09.03-6.34-.01-12.68.05-19.01.01-1.13-.31-1.44-1.41-1.38-.98.05-2.27.46-2.9-.18-.63-.64-.17-1.91-.19-2.9-.03-1.97-.01-1.97,1.95-1.97q2.52,0,2.52-2.52c0-1.44-.03-2.89.4-4.29,1.07-3.51,4.07-5.95,7.87-6.34,1.36-.14,2.73-.08,4.09.16.75.14,1,.46.97,1.2-.06,1.16-.05,2.33,0,3.49.03.72-.14.95-.85.63-.36-.16-.77-.23-1.16-.3-2.74-.52-4.6.79-4.9,3.56-.13,1.23-.04,2.48-.08,3.73-.02.54.24.68.73.68,2.66-.01,5.32-.02,7.98,0,.6,0,.75-.27.74-.81-.03-1.4.02-2.81-.02-4.21-.02-.7.13-1.08.89-1.29,1.78-.47,3.53-1.05,5.43-1.63Z"/>
      <path class="cls-1" d="M193.04,50c-8.94-.04-13.8-6.02-13.49-14.34.09-2.38.52-4.7,1.68-6.82,2.17-4,5.67-6.02,10.1-6.51,4.57-.5,8.86.11,12.25,3.61,1.97,2.04,2.94,4.57,3.27,7.33.46,3.83.11,7.55-2.04,10.87-2.74,4.24-6.87,5.83-11.77,5.85ZM200.47,36.02c.07-.91-.07-1.94-.27-2.97-.61-3.05-2.58-5.1-5.3-5.56-3.28-.55-6.2.55-7.52,3.1-1.83,3.52-1.86,7.19-.16,10.77,1.23,2.58,3.92,3.75,7.26,3.42,2.74-.27,4.67-1.92,5.48-4.7.37-1.28.53-2.59.51-4.06Z"/>
      <path class="cls-1" d="M243.98,50.02c-9.49-.07-14.17-6.78-13.44-15.32.22-2.55.89-4.97,2.37-7.1,2.47-3.53,6.03-5.04,10.19-5.37,1.85-.15,3.7-.05,5.52.4,4.25,1.04,7.13,3.61,8.48,7.74,1.31,4.02,1.24,8.07-.42,11.99-2.1,4.96-6.71,7.67-12.71,7.66ZM251.47,35.85c-.07-.63-.11-1.6-.27-2.54-.62-3.57-2.95-5.73-6.29-5.9-3.87-.2-6.46,1.61-7.45,5.27-.7,2.58-.66,5.17.25,7.69,1.11,3.1,3.69,4.63,7.35,4.44,3.06-.16,5.14-1.92,5.96-5.05.3-1.17.41-2.37.47-3.9Z"/>
      <path class="cls-1" d="M226.33,29.07c-2.28-1.37-4.52-2.04-6.97-1.86-1.99.15-3.13,1.32-2.96,3.04.09.91.55,1.56,1.32,2.04,1.14.7,2.38,1.17,3.6,1.69.97.41,1.88.91,2.79,1.43,5.05,2.86,4.83,10.23-.36,13.06-3.36,1.83-6.94,1.86-10.57,1.07-3.22-.7-3.21-.72-3.21-4.01,0-.72.03-1.45,0-2.17-.04-.78.21-.8.81-.42,2.04,1.3,4.27,2.07,6.71,2.09.64,0,1.29-.08,1.91-.25.97-.26,1.77-.75,1.96-1.88.19-1.14-.14-2.06-1.08-2.73-1.09-.78-2.34-1.25-3.54-1.8-.77-.35-1.54-.69-2.3-1.06-3.07-1.49-4.61-3.94-4.42-7.35.2-3.6,2.34-5.8,5.56-7,3.3-1.23,6.65-.9,9.97.07.49.14.83.36.81,1-.05,1.6-.02,3.2-.02,5.05Z"/>
      <path class="cls-1" d="M158.86,29.5c-5.35-2.92-9.51-2.72-12.31.47-2.6,2.96-2.82,8.8-.45,11.94,2.59,3.42,6.32,3.66,12.76.77,0,1.72-.01,3.38,0,5.05,0,.46-.28.63-.62.78-5,2.15-10,2.31-14.67-.66-4.42-2.82-5.87-7.22-5.59-12.28.15-2.65.78-5.16,2.28-7.38,3.38-4.99,8.34-6.36,14.03-5.87,1.32.11,2.63.4,3.86.94.37.16.72.3.72.84-.02,1.75,0,3.5,0,5.41Z"/>
      <path class="cls-1" d="M169.91,27.2c.53-.87.85-1.46,1.23-2,1.62-2.29,4.44-3.34,7.14-2.68.48.12.9.22.88.91-.04,1.8-.01,3.6-.01,5.48-.92-.27-1.72-.65-2.6-.78-2.32-.34-4.1.43-5.35,2.42-.94,1.51-1.28,3.18-1.29,4.94,0,4.25-.03,8.51.01,12.76,0,.88-.19,1.21-1.13,1.15-1.41-.08-2.82-.05-4.23,0-.69.02-1.02-.11-1.01-.91.02-8.26.02-16.53,0-24.79,0-.61.17-.86.82-.85,1.57.04,3.14.03,4.71,0,.65-.01.84.24.82.85-.03,1.06,0,2.11,0,3.51Z"/>
      <path class="cls-1" d="M133.64,36.1c0,4.05-.03,8.1.02,12.15.01.9-.23,1.19-1.15,1.14-1.45-.08-2.9-.06-4.35,0-.71.02-.88-.24-.88-.9.02-8.26.02-16.53,0-24.79,0-.67.2-.93.89-.91,1.49.04,2.98.05,4.47,0,.81-.03,1.02.27,1.01,1.04-.03,4.09-.02,8.18-.02,12.27Z"/>
      <path class="cls-1" d="M130.5,11.55c2.16-.02,3.84,1.53,3.88,3.58.04,1.96-1.74,3.64-3.85,3.63-2.08,0-3.78-1.59-3.8-3.54-.03-2.05,1.62-3.65,3.77-3.67Z"/>
    </g>
  </g>
</svg>