<?xml version="1.0" encoding="UTF-8"?>
<svg id="Capa_1" data-name="Capa 1" xmlns="http://www.w3.org/2000/svg" viewBox="0 0 177.73 165.03">
  <defs>
    <style>
      .cls-1 {
        fill: #2d3c4c;
      }

      .cls-1, .cls-2, .cls-3, .cls-4, .cls-5 {
        stroke-width: 0px;
      }

      .cls-2 {
        fill: #45576b;
      }

      .cls-3 {
        fill: #384959;
      }

      .cls-4 {
        fill: #3e4e60;
      }

      .cls-5 {
        fill: #37465a;
      }
    </style>
  </defs>
  <g id="esm2R1">
    <g>
      <path class="cls-5" d="M138.79,165.03c-.05-.26-.24-.32-.47-.35-6.05-.91-9.76-5.67-10.34-12.24-.26-2.98.05-5.9,1.31-8.67,3.68-8.02,12.14-8.47,18-5.89,1.24.55.31,1.24.19,1.87-.15.8-.58.71-1.18.41-1.32-.67-2.71-1.11-4.22-1.2-6.01-.38-9.88,2.48-11.02,8.38-.59,3.04-.47,6.12.62,9.07,1.7,4.57,5.87,6.73,11.34,5.86,1.18-.19,2.34-.54,3.48-.91.62-.2,1.09-.49,1.3.47.15.72.73,1.44-.44,1.83-1.51.5-3.04.88-4.63,1.05-.34.04-.79-.21-.98.32h-2.96Z"/>
      <path class="cls-4" d="M59.88,44.3c-.32-.64.18-1.03.47-1.46,9.4-14.07,18.81-28.14,28.23-42.2.23-.35.45-1.17.88-.11-.94,2.14,0,4.29.09,6.41.19,4.99.79,9.97,1.21,14.95.25,2.98.34,5.98.75,8.94.61,4.37.83,8.76,1.21,13.14-10.18,0-20.36,0-30.54,0-.58,0-1.22-.21-1.7.33-.2,0-.4,0-.6,0Z"/>
      <path class="cls-5" d="M59.88,44.3c.2,0,.4,0,.6,0,.19.1.36.24.56.3,6.96,2,13.91,4.05,20.89,5.97,3.93,1.08,7.77,2.49,11.8,3.24.01.26.04.52.3.67-.6,1.06-.27,2.25-.45,3.38-.49,2.99-.82,6.01-1.15,9.03-.39,3.45-.68,6.91-1.08,10.36-.5,4.36-1.06,8.72-1.59,13.08-.93.45-.94-.5-1.18-.87-3.45-5.33-6.85-10.69-10.27-16.04-5.92-9.27-11.83-18.54-17.74-27.82-.26-.41-.45-.86-.68-1.29Z"/>
      <path class="cls-5" d="M92.73,43.96c-.38-4.38-.61-8.78-1.21-13.14-.41-2.96-.5-5.96-.75-8.94-.42-4.98-1.02-9.96-1.21-14.95-.08-2.12-1.03-4.27-.09-6.41,6.46,9.74,12.93,19.48,19.38,29.23,2.98,4.51,5.93,9.04,8.89,13.57-.11.33-.21.65-.32.98,0,0,0,0,0,0-1.55-.39-3.13-.34-4.71-.33-6.66,0-13.32,0-19.98,0h0Z"/>
      <path class="cls-1" d="M89.75,90.31c.53-4.36,1.09-8.71,1.59-13.08.39-3.45.69-6.91,1.08-10.36.34-3.02.66-6.04,1.15-9.03.19-1.12-.14-2.32.45-3.37.04-.62.55-.76,1-.94,4.74-1.89,9.51-3.72,14.21-5.7,2.74-1.16,5.64-1.93,8.19-3.53,0,0,0,0,0,0,.19,0,.39,0,.58.01-1.95,3.8-4.35,7.33-6.57,10.97-6.9,11.32-13.85,22.6-20.79,33.9-.25.4-.37.92-.88,1.13Z"/>
      <path class="cls-5" d="M60.4,154.38c0-5.15.05-10.3-.03-15.45-.02-1.4.2-1.99,1.81-1.91,3.12.15,3.12.04,3.12,3.23,0,7.46-.03,14.91.03,22.37.01,1.3-.35,1.58-1.63,1.68-1.96.15-2.99-.55-3.99-2.24-3.22-5.41-6.76-10.63-10.68-15.57-.36-.45-.74-.9-1.36-1.66v4.07c0,4.66-.04,9.32.03,13.98.01,1.09-.3,1.37-1.37,1.37-3.56-.02-3.56.03-3.56-3.46,0-7.4.03-14.8-.03-22.21,0-1.2.26-1.51,1.51-1.59,1.95-.13,3.22.55,4.43,2.06,3.67,4.58,7.21,9.24,10.48,14.12.29.44.58.87.87,1.31l.37-.11Z"/>
      <path class="cls-5" d="M.18,150.52c0-4,.04-8-.02-11.99-.02-1.08.17-1.51,1.4-1.49,4.82.08,9.64.06,14.46,0,1.09-.01,1.38.3,1.36,1.37-.03,2.89.02,2.89-2.79,2.89-2.74,0-5.48.05-8.22-.03-1.03-.03-1.32.29-1.26,1.29.08,1.47.09,2.96,0,4.43-.07,1.08.37,1.26,1.33,1.24,2.74-.06,5.48.04,8.21-.05,1.13-.04,1.36.36,1.35,1.39-.03,2.84.02,2.84-2.86,2.84-2.25,0-4.49.04-6.74-.02-.98-.03-1.33.21-1.3,1.26.07,3.07-.02,6.13.05,9.2.03,1.09-.3,1.39-1.38,1.4-3.6.01-3.6.05-3.6-3.56,0-3.4,0-6.79,0-10.19Z"/>
      <path class="cls-5" d="M157.63,150.55c0-4.06.04-8.11-.03-12.16-.02-1.13.39-1.32,1.41-1.35,1.13-.03,1.37.36,1.35,1.4-.06,3.07.02,6.14-.04,9.21-.02,1.02.3,1.29,1.3,1.27,4.05-.06,8.11-.06,12.17,0,1.04.02,1.28-.3,1.26-1.29-.06-3.12.03-6.25-.05-9.37-.03-1.14.47-1.22,1.37-1.2.85.02,1.38-.01,1.37,1.17-.06,8.27-.05,16.55,0,24.82,0,1.11-.43,1.24-1.35,1.23-.89-.01-1.4-.08-1.38-1.22.07-3.56,0-7.12.05-10.68.01-.93-.25-1.2-1.18-1.18-4.11.05-8.22.07-12.33,0-1.13-.02-1.21.44-1.2,1.35.04,3.45-.02,6.91.04,10.36.02,1.06-.25,1.42-1.37,1.41-1.09-.01-1.4-.33-1.38-1.41.06-4.11.02-8.22.02-12.33h0Z"/>
      <path class="cls-5" d="M103.15,150.59c0-4.11.02-8.22-.02-12.33,0-.9.2-1.22,1.17-1.21,4.44.05,8.88.05,13.32,0,.94-.01,1.19.27,1.19,1.19,0,.95-.3,1.18-1.21,1.17-3.51-.05-7.02.02-10.52-.05-1.03-.02-1.3.29-1.27,1.29.07,2.3.09,4.61,0,6.9-.05,1.16.42,1.34,1.42,1.32,2.96-.06,5.92-.01,8.88-.02.73,0,1.37-.12,1.34,1.03-.02,1-.27,1.31-1.3,1.28-3.01-.07-6.03.02-9.04-.05-.98-.02-1.33.21-1.3,1.26.08,2.74.09,5.48,0,8.22-.04,1.14.39,1.34,1.41,1.33,3.78-.05,7.56,0,11.34-.04.85,0,1.27.11,1.28,1.12.01,1.05-.35,1.26-1.33,1.25-4.66-.05-9.32-.07-13.98.01-1.23.02-1.42-.44-1.4-1.52.06-4.05.02-8.11.02-12.17Z"/>
      <path class="cls-5" d="M26.57,150.72c0-4.1.04-8.21-.02-12.31-.02-1.07.27-1.37,1.35-1.36,3.62.02,3.62-.02,3.62,3.51,0,7.39-.03,14.78.03,22.16,0,1.22-.28,1.58-1.53,1.56-3.45-.06-3.45,0-3.45-3.38,0-3.39,0-6.79,0-10.18Z"/>
      <path class="cls-5" d="M82.75,151.7c0-3.62-.04-7.24.02-10.86.02-1.11-.23-1.54-1.42-1.48-2.08.1-4.17-.01-6.25.04-.87.02-1.12-.25-1.11-1.11,0-.86.14-1.26,1.15-1.25,5.98.05,11.95.05,17.93,0,.96,0,1.05.4,1.04,1.17-.01.73,0,1.23-1,1.19-2.08-.08-4.17.05-6.25-.05-1.17-.06-1.44.32-1.44,1.46.05,7.29,0,14.58.05,21.88,0,1.21-.26,1.66-1.53,1.59-.93-.05-1.21-.3-1.2-1.23.05-3.78.02-7.57.02-11.35Z"/>
      <path class="cls-5" d="M103.89,116.44c1.05-2.23,2.05-4.22,2.91-6.26.42-.99,1.04-1.28,2.03-1.15,1.08.15.65,1,.7,1.55.27,2.94.49,5.89.68,8.84.04.6.47,1.41-.82,1.49-1.34.09-1.2-.67-1.24-1.51-.09-2.1-.23-4.2-.37-6.73-1.12,1.76-1.58,3.32-2.32,4.74-.38.72-.24,1.93-1.65,1.9-1.3-.03-1.15-1.14-1.5-1.82-.74-1.44-1.35-2.95-2.17-4.8-.57,2.52-.46,4.68-.52,6.81-.02.85-.05,1.43-1.21,1.42-1.35-.01-1-.86-.95-1.55.22-3.06.47-6.12.75-9.17.04-.46-.16-1.2.76-1.16.69.03,1.39-.16,1.79.74.97,2.17,2.02,4.29,3.15,6.66Z"/>
      <path class="cls-5" d="M132.78,114.53c1.6.71,2.06,1.94,1.8,3.52-.26,1.58-1.33,2.28-2.76,2.65-1.73.45-3.48.24-5.22.17-.76-.03-.96-.48-.95-1.21.03-3.17.03-6.35,0-9.52,0-.76.23-1.04,1.01-1.1,1.37-.1,2.72-.23,4.09,0,1.34.22,2.58.55,3.15,1.98.57,1.44-.03,2.54-1.11,3.52ZM127.86,117.18c-.04,1.1-.3,2.19,1.44,2.06,2.02-.15,3.14-.72,3.16-1.91.02-1.24-.91-1.66-3.15-1.81-1.49-.1-1.65.59-1.46,1.67ZM129.37,110.71c-1.09-.19-1.7.09-1.53,1.34.11.84-.36,2.01,1.26,1.76,1.12-.17,2.7.26,2.77-1.51.07-1.68-1.42-1.46-2.5-1.59Z"/>
      <path class="cls-5" d="M34.91,114.92c0,3.76-2.23,6.19-5.69,6.18-3.46,0-5.74-2.44-5.75-6.16-.02-3.68,2.3-6.18,5.73-6.18,3.47,0,5.71,2.41,5.71,6.16ZM32.64,114.86c0-.09-.01-.31-.03-.52-.19-2.43-1.58-3.78-3.73-3.63-1.99.14-3.28,1.93-3.18,4.42.09,2.49,1.52,4.15,3.55,4.1.67-.02,1.29-.2,1.84-.61,1.23-.9,1.53-2.2,1.55-3.75Z"/>
      <path class="cls-5" d="M71.01,114.85c.02-3.67,2.36-6.12,5.82-6.09,3.41.03,5.72,2.57,5.67,6.25-.05,3.72-2.36,6.13-5.83,6.08-3.46-.05-5.68-2.5-5.66-6.25ZM80.22,114.9c0-1.99-.86-3.51-2.26-4.03-1.37-.52-2.96-.07-3.84,1.08-1.1,1.45-1.15,4.43-.05,5.9.91,1.21,2.15,1.65,3.63,1.21,1.64-.49,2.53-1.97,2.52-4.15Z"/>
      <path class="cls-5" d="M166.39,120.72c1.26-3.75,2.7-7.4,4.31-10.98.28-.63.71-.74,1.3-.71.59.03,1.11-.07,1.46.7,1.53,3.33,2.82,6.75,4.08,10.19.11.3.46.86-.16.91-.65.06-1.81.43-1.91-.35-.41-3.05-2.61-2.36-4.53-2.46-1.07-.06-1.67.29-1.83,1.33-.25,1.65-1.28,1.77-2.71,1.37ZM173.88,116.29c-.48-1.62-1.01-3.14-1.89-4.78-.72,1.71-1.41,3.14-1.74,4.78h3.63Z"/>
      <path class="cls-5" d="M6.1,121.1c-2.96,0-4.74-1.13-5.6-3.35-1.04-2.73-.43-5.9,1.47-7.6,1.62-1.45,4.73-1.83,6.66-.9.71.34.6.75.4,1.32-.2.57-.44.68-1.06.52-4.22-1.05-6.58,1.32-5.47,5.42.62,2.29,2.3,3.12,5.06,2.5.67-.15,1.4-.76,1.7.58.31,1.38-.81,1.07-1.35,1.28-.64.25-1.4.2-1.81.25Z"/>
      <path class="cls-5" d="M50.19,114.73c0-1.58.05-3.17-.02-4.75-.03-.88.39-.95,1.09-.96.71,0,1.09.08,1.07.95-.06,2.46.08,4.92-.06,7.37-.08,1.44.43,1.8,1.73,1.64.81-.1,1.64,0,2.46-.02.72-.03,1.25-.03,1.21.99-.04.87-.43.95-1.12.94-1.75-.03-3.5-.05-5.24,0-.85.03-1.16-.22-1.13-1.09.06-1.69.02-3.39.02-5.08Z"/>
      <path class="cls-5" d="M151.95,114.94c0,1.64-.03,3.28.01,4.92.02.76-.19,1.07-1,1.04-.74-.03-1.23-.06-1.22-1.03.05-3.28.06-6.56,0-9.85-.02-1.01.5-.97,1.21-1.01.78-.04,1.05.18,1.02,1-.07,1.64-.02,3.28-.02,4.92Z"/>
      <path class="cls-5" d="M118,44.31c-.19,0-.39,0-.58-.01.11-.33.21-.65.32-.98.37.26.42.6.26,1Z"/>
      <path class="cls-2" d="M93.72,53.8c-4.02-.74-7.87-2.15-11.8-3.24-6.98-1.92-13.93-3.97-20.89-5.97-.2-.06-.37-.2-.56-.3.48-.54,1.13-.33,1.7-.33,10.18-.01,20.36,0,30.54,0,0,0,0,0,0,0,.33,3.28.66,6.56.99,9.84Z"/>
      <path class="cls-3" d="M93.72,53.8c-.33-3.28-.66-6.56-.99-9.84,6.66,0,13.32,0,19.98,0,1.58,0,3.16-.06,4.71.33-2.54,1.6-5.45,2.38-8.19,3.53-4.7,1.99-9.47,3.81-14.21,5.7-.45.18-.95.32-1,.94-.26-.15-.29-.4-.3-.67Z"/>
    </g>
  </g>
</svg>