<?xml version="1.0" encoding="UTF-8"?>
<svg id="Capa_1" data-name="Capa 1" xmlns="http://www.w3.org/2000/svg" viewBox="0 0 245 94.73">
  <defs>
    <style>
      .cls-1 {
        fill: #37465a;
        fill-rule: evenodd;
        stroke-width: 0px;
      }
    </style>
  </defs>
  <path class="cls-1" d="M.54,38.22C2.9,24.09,10.56,13.61,22.73,6.27,28.63,2.71,35.05.82,41.93.11c9.29-.97,20.86,4.68,25.29,12.76,2.63,4.8,3.14,9.98,2.51,15.31-.59,4.98-2.11,9.64-5.44,13.51-4.85,5.63-11.08,8.33-18.5,8.28-2.77-.02-4.47-1.2-4.99-3.18-.6-2.29.39-4.19,2.62-4.99.99-.36,2.04-.5,3.08-.55,7.73-.37,12.75-4.61,14.42-12.21,2.07-9.41-3.86-18.05-13.28-19.11-8.46-.95-16.31.92-23.15,6.03-8.07,6.03-13.68,13.82-15.13,23.94-2.84,19.82,9.57,37.91,29.21,41.14,6.65,1.09,13.35,1.13,20.06,1.02,1.02-.02,1.9-.03,4.15-1.14,4.15-2.29,4.2-8.88.08-11.29-.45-.26-1.63-.8-2.96-1.08,3.68-.02,7.4,2.03,9,4.86,4.02,7.1-.37,15.36-7.23,16.69-4.63.9-9.27,1.19-13.98,1.05-5.01-.14-9.94-.6-14.74-2.11-10.05-3.15-18.73-8.29-25.02-16.92-4.39-6.02-6.71-12.82-7.56-20.16-.05-.44-.38-3.39-.35-6.38.03-3.32.43-6.73.54-7.38Z"/>
  <path class="cls-1" d="M48.48,14.25s5.08,1.17,4.73,7.45c0,0-.18,5.91-8.47,5.68,0,0-18.95,1.78-17.19,20.35,0,0,.49,13.31,16.12,15.79.24.04,1.51.11,1.51.11h21.03s4.11.08,4.11-4.51c0,0,.5-3.26-3.35-4.18h-21.72s-8.39-.42-9.14-8.77c0,0-1.26-8.43,9.56-9.94,0,0,13.17-.75,10.57-14.37,0,0-1.54-6.36-7.75-7.62Z"/>
  <path class="cls-1" d="M47.9,14.14c1.72.33,4.93,1.68,5.31,6.08.23,2.74-.75,6.77-7.23,7.16,0,0,1.91-.51,1.86-2.35,0,0-.19-1.71-1.94-1.98-.95-.15-2.36-.17-4.52.07,0,0-19.46,1.75-18.7,25.14,0,0,.92,18.37,21.05,20.21h15.01s6.37,0,7.13,6.01c0,0,1.05,5.72-5.43,7.38,0,0,1.73-.45,1.73-2.31,0,0-.24-2.07-2.59-1.9,0,0-12.22-.32-18.55-.73-.13,0-.62-.06-1.02-.13-3.7-.7-22.69-5.33-26.2-27.35-.03-.2-.11-.82-.13-1.2-.14-3.19-.11-18.55,12.78-28.3,5.68-4.29,11.48-6.23,19.96-5.96.25,0,1.02.06,1.48.15Z"/>
  <path class="cls-1" d="M105.63,4.23h-2.32l-4.63,11.65h2.37l.98-2.4h4.9l.94,2.4h2.37l-4.62-11.65ZM102.88,11.32l1.61-4,1.6,4h-3.21ZM107.51.23h-2.64l-1.95,3.1h1.6l2.99-3.1ZM96.79,7.76l1.6-1.48c-.66-.75-1.45-1.33-2.37-1.73-.92-.41-1.87-.61-2.86-.61-1.16,0-2.25.27-3.26.82-1.01.55-1.78,1.28-2.33,2.18-.54.9-.81,1.93-.81,3.1,0,1.79.59,3.27,1.78,4.41,1.19,1.15,2.72,1.72,4.58,1.72,1.01,0,1.91-.16,2.7-.49.79-.32,1.63-.91,2.51-1.75l-1.55-1.57c-.66.63-1.26,1.07-1.81,1.31-.55.24-1.15.36-1.82.36-.78,0-1.48-.17-2.12-.52-.64-.34-1.13-.82-1.48-1.42-.35-.6-.52-1.29-.52-2.07,0-1.12.39-2.05,1.18-2.81.79-.76,1.75-1.14,2.9-1.14,1.36,0,2.58.56,3.67,1.67ZM112.45,4.23h2.23l2.78,8.12,2.81-8.12h2.22l2.01,11.65h-2.21l-1.29-7.36-2.55,7.36h-2.01l-2.53-7.36-1.32,7.36h-2.23l2.08-11.65ZM131.56,4.23h-2.32l-4.63,11.65h2.37l.98-2.4h4.9l.94,2.4h2.37l-4.62-11.65ZM128.81,11.32l1.61-4,1.6,4h-3.21ZM137.36,4.23h2.42c1.33,0,2.27.11,2.83.34.56.23,1.01.61,1.36,1.14s.51,1.16.51,1.89c0,.77-.19,1.41-.57,1.92-.38.51-.95.9-1.71,1.17l2.84,5.18h-2.5l-2.7-4.93h-.21v4.93h-2.28V4.23ZM139.65,8.79h.72c.73,0,1.23-.09,1.5-.28.27-.19.41-.49.41-.92,0-.25-.07-.48-.2-.66-.14-.19-.32-.32-.54-.41-.23-.08-.65-.12-1.25-.12h-.63v2.39ZM152.15,4.23h-2.32l-4.63,11.65h2.37l.98-2.4h4.9l.94,2.4h2.37l-4.62-11.65ZM149.39,11.32l1.61-4,1.6,4h-3.21ZM86.91,61.13h10.05v3.33h-6.57v3.23h6.57v3.27h-6.57v4.7h6.57v3.34h-10.05v-17.86ZM102.6,61.13h-3.5v17.86h8.61v-3.24h-5.1v-14.62ZM109.26,61.13h10.05v3.33h-6.57v3.23h6.57v3.27h-6.57v4.7h6.57v3.34h-10.05v-17.86ZM135.91,66.54l2.45-2.27c-1.02-1.15-2.23-2.03-3.63-2.65-1.41-.62-2.87-.93-4.39-.93-1.79,0-3.45.42-5,1.26-1.55.84-2.74,1.95-3.57,3.34-.83,1.38-1.24,2.97-1.24,4.75,0,2.75.91,5.01,2.73,6.77,1.82,1.76,4.16,2.64,7.03,2.64,1.55,0,2.93-.25,4.14-.75,1.21-.5,2.49-1.39,3.85-2.68l-2.38-2.41c-1.01.97-1.93,1.64-2.78,2.01-.84.37-1.77.55-2.79.55-1.19,0-2.28-.26-3.25-.79-.97-.53-1.73-1.25-2.26-2.18-.53-.92-.8-1.98-.8-3.17,0-1.71.6-3.15,1.81-4.31,1.2-1.17,2.69-1.75,4.44-1.75,2.08,0,3.96.86,5.63,2.56ZM138.48,61.13h10.17v3.35h-3.35v14.51h-3.55v-14.51h-3.27v-3.35h0ZM153.88,61.13h-3.71v17.86h3.5v-7.56h.32l4.14,7.56h3.83l-4.36-7.94c1.17-.4,2.04-1,2.62-1.79.58-.79.87-1.77.87-2.94s-.26-2.08-.79-2.9c-.53-.82-1.22-1.4-2.08-1.75-.86-.35-2.31-.53-4.34-.53ZM154.77,68.11h-1.1v-3.67h.96c.93,0,1.57.06,1.92.19.35.13.63.33.84.62.21.29.31.63.31,1.02,0,.66-.21,1.13-.63,1.41-.42.28-1.19.43-2.3.43ZM172.35,60.68c2.61,0,4.84.91,6.72,2.74,1.87,1.83,2.81,4.06,2.81,6.69s-.92,4.81-2.77,6.62c-1.85,1.8-4.09,2.71-6.73,2.71s-5.06-.93-6.89-2.78c-1.83-1.85-2.74-4.06-2.74-6.61,0-1.71.43-3.28,1.28-4.71.85-1.43,2.02-2.57,3.51-3.41,1.49-.84,3.09-1.26,4.81-1.26ZM172.32,64.01c-1.7,0-3.13.58-4.3,1.72-1.16,1.15-1.74,2.61-1.74,4.38,0,1.98.73,3.54,2.19,4.69,1.14.9,2.44,1.35,3.91,1.35,1.66,0,3.08-.58,4.25-1.75,1.17-1.17,1.75-2.6,1.75-4.31s-.59-3.14-1.77-4.32c-1.18-1.18-2.61-1.77-4.3-1.77ZM172.96,54.99h4.04l-4.58,4.76h-2.45l2.99-4.76ZM187.43,61.13h-3.36v17.86h3.5v-11.72l7.86,11.72h3.37v-17.86h-3.5v11.75l-7.88-11.75ZM201.63,61.13h3.48v17.86h-3.48v-17.86ZM222.39,66.54l2.45-2.27c-1.02-1.15-2.23-2.03-3.63-2.65-1.4-.62-2.87-.93-4.39-.93-1.79,0-3.45.42-5,1.26-1.55.84-2.74,1.95-3.57,3.34-.83,1.38-1.24,2.97-1.24,4.75,0,2.75.91,5.01,2.73,6.77,1.82,1.76,4.16,2.64,7.02,2.64,1.55,0,2.93-.25,4.14-.75,1.21-.5,2.49-1.39,3.85-2.68l-2.37-2.41c-1.01.97-1.93,1.64-2.78,2.01-.84.37-1.77.55-2.79.55-1.19,0-2.28-.26-3.25-.79-.98-.53-1.73-1.25-2.26-2.18-.53-.92-.8-1.98-.8-3.17,0-1.71.6-3.15,1.81-4.31,1.21-1.17,2.69-1.75,4.44-1.75,2.08,0,3.96.86,5.63,2.56ZM235.47,60.68c2.6,0,4.84.91,6.72,2.74,1.87,1.83,2.81,4.06,2.81,6.69s-.92,4.81-2.77,6.62c-1.85,1.8-4.09,2.71-6.73,2.71s-5.06-.93-6.89-2.78-2.74-4.06-2.74-6.61c0-1.71.43-3.28,1.28-4.71.85-1.43,2.02-2.57,3.51-3.41,1.49-.84,3.1-1.26,4.82-1.26ZM235.43,64.01c-1.7,0-3.14.58-4.3,1.72-1.16,1.15-1.74,2.61-1.74,4.38,0,1.97.73,3.54,2.19,4.69,1.14.9,2.44,1.35,3.91,1.35,1.66,0,3.08-.58,4.24-1.75,1.17-1.17,1.75-2.6,1.75-4.31s-.59-3.14-1.77-4.32c-1.18-1.18-2.61-1.77-4.3-1.77ZM96.79,23.81l1.6-1.48c-.66-.75-1.45-1.33-2.37-1.73-.92-.41-1.87-.61-2.86-.61-1.16,0-2.25.27-3.26.82-1.01.55-1.78,1.28-2.33,2.18-.54.9-.81,1.93-.81,3.1,0,1.79.59,3.27,1.78,4.41,1.19,1.15,2.72,1.72,4.58,1.72,1.01,0,1.91-.16,2.7-.49.79-.32,1.63-.91,2.51-1.75l-1.55-1.57c-.66.63-1.26,1.07-1.81,1.31-.55.24-1.15.36-1.82.36-.78,0-1.48-.17-2.12-.52-.64-.34-1.13-.82-1.48-1.42-.35-.6-.52-1.29-.52-2.07,0-1.12.39-2.05,1.18-2.81.79-.76,1.75-1.14,2.9-1.14,1.36,0,2.58.56,3.67,1.67ZM105.32,19.99c1.7,0,3.16.6,4.38,1.79,1.22,1.19,1.83,2.65,1.83,4.36s-.6,3.14-1.81,4.32c-1.21,1.18-2.67,1.77-4.39,1.77s-3.3-.6-4.49-1.81c-1.19-1.21-1.79-2.64-1.79-4.31,0-1.11.28-2.14.83-3.07.56-.93,1.32-1.67,2.29-2.22.97-.55,2.02-.82,3.14-.82ZM105.3,22.16c-1.11,0-2.04.37-2.8,1.12-.76.75-1.14,1.7-1.14,2.86,0,1.29.48,2.31,1.43,3.06.74.59,1.59.88,2.55.88,1.08,0,2.01-.38,2.77-1.14.76-.76,1.14-1.7,1.14-2.81s-.38-2.05-1.15-2.82c-.77-.77-1.7-1.15-2.8-1.15ZM115.24,20.28h-2.28v11.65h5.61v-2.11h-3.33v-9.53ZM125.24,19.99c1.7,0,3.16.6,4.38,1.79,1.22,1.19,1.83,2.65,1.83,4.36s-.6,3.14-1.81,4.32c-1.21,1.18-2.67,1.77-4.39,1.77s-3.3-.6-4.49-1.81c-1.19-1.21-1.79-2.64-1.79-4.31,0-1.11.28-2.14.83-3.07.56-.93,1.32-1.67,2.29-2.22.97-.55,2.02-.82,3.14-.82ZM125.21,22.16c-1.11,0-2.04.37-2.8,1.12-.76.75-1.14,1.7-1.14,2.86,0,1.29.48,2.31,1.43,3.06.74.59,1.59.88,2.55.88,1.08,0,2.01-.38,2.77-1.14.76-.76,1.14-1.7,1.14-2.81s-.38-2.05-1.15-2.82c-.77-.77-1.7-1.15-2.8-1.15ZM136.26,20.28h-2.23l-2.08,11.65h2.23l1.32-7.36,2.53,7.36h2.01l2.55-7.36,1.29,7.36h2.21l-2.01-11.65h-2.22l-2.81,8.12-2.78-8.12ZM147.17,31.93v-11.65h1.89c1.09,0,1.9.07,2.4.21.72.18,1.29.53,1.72,1.03.42.5.64,1.09.64,1.77,0,.44-.1.85-.29,1.21-.19.36-.51.7-.94,1.02.73.33,1.26.75,1.6,1.25.34.5.51,1.09.51,1.77s-.17,1.25-.52,1.79c-.35.54-.8.94-1.35,1.21-.55.27-1.31.4-2.28.4h-3.37ZM149.46,22.4v2.45h.5c.56,0,.97-.11,1.24-.34.27-.23.41-.54.41-.93,0-.36-.13-.65-.38-.87-.26-.21-.65-.32-1.17-.32h-.59ZM149.46,26.83v2.98h.57c.95,0,1.59-.12,1.92-.35.33-.23.49-.57.49-1.01,0-.5-.19-.9-.58-1.19-.39-.29-1.03-.44-1.93-.44h-.47ZM158.23,20.28h-2.27v11.65h2.27v-11.65ZM163.73,20.28h2.32l4.62,11.65h-2.37l-.94-2.4h-4.9l-.98,2.4h-2.37l4.63-11.65ZM164.9,23.37l-1.61,4h3.21l-1.6-4ZM173.89,20.28h-2.19v11.65h2.29v-7.64l5.13,7.64h2.2v-11.65h-2.28v7.66l-5.14-7.66ZM186.98,20.28h2.32l4.62,11.65h-2.37l-.94-2.4h-4.9l-.98,2.4h-2.37l4.63-11.65ZM188.16,23.37l-1.61,4h3.21l-1.6-4ZM201.6,20.28h-2.71v11.65h2.75c1.55,0,2.65-.09,3.28-.29.63-.19,1.22-.53,1.76-1.03.54-.5.97-1.12,1.27-1.87.31-.75.46-1.58.46-2.47,0-1.26-.27-2.36-.82-3.31s-1.25-1.63-2.1-2.05c-.85-.42-2.14-.63-3.89-.63ZM201.16,29.77v-7.35h.78c1.42,0,2.45.31,3.09.92.71.68,1.07,1.64,1.07,2.88,0,.8-.15,1.48-.45,2.03-.3.55-.68.94-1.15,1.17-.47.23-1.23.35-2.27.35h-1.06ZM209.86,20.28h6.55v2.17h-4.28v2.11h4.28v2.13h-4.28v3.06h4.28v2.18h-6.55v-11.65ZM102.26,41.47l2.45-2.27c-1.02-1.15-2.23-2.03-3.63-2.65-1.41-.62-2.87-.93-4.39-.93-1.79,0-3.45.42-5,1.26-1.55.84-2.74,1.95-3.57,3.34-.83,1.38-1.24,2.97-1.24,4.75,0,2.75.91,5.01,2.73,6.77,1.82,1.76,4.16,2.64,7.03,2.64,1.55,0,2.93-.25,4.14-.75,1.21-.5,2.49-1.39,3.85-2.68l-2.38-2.41c-1.01.97-1.93,1.64-2.77,2.01-.84.37-1.77.55-2.79.55-1.19,0-2.28-.26-3.25-.79-.97-.53-1.73-1.25-2.26-2.18-.53-.92-.8-1.98-.8-3.17,0-1.71.6-3.15,1.81-4.31,1.2-1.17,2.69-1.75,4.44-1.75,2.08,0,3.96.86,5.63,2.56ZM115.34,35.62c2.6,0,4.84.91,6.72,2.74,1.87,1.83,2.81,4.06,2.81,6.69s-.92,4.81-2.77,6.62c-1.85,1.8-4.09,2.71-6.73,2.71s-5.06-.93-6.89-2.78c-1.83-1.85-2.74-4.06-2.74-6.61,0-1.71.43-3.28,1.28-4.71.85-1.43,2.02-2.57,3.51-3.41,1.49-.84,3.09-1.26,4.81-1.26ZM115.3,38.95c-1.7,0-3.14.58-4.3,1.72-1.16,1.15-1.74,2.61-1.74,4.38,0,1.97.73,3.54,2.19,4.69,1.14.9,2.44,1.35,3.91,1.35,1.66,0,3.08-.58,4.25-1.75,1.17-1.17,1.75-2.6,1.75-4.31s-.59-3.14-1.77-4.32c-1.18-1.18-2.61-1.77-4.3-1.77ZM132.24,36.07h-3.41l-3.19,17.86h3.42l2.02-11.28,3.88,11.28h3.09l3.91-11.28,1.97,11.28h3.39l-3.09-17.86h-3.41l-4.31,12.46-4.27-12.46ZM148.98,36.07h10.05v3.33h-6.57v3.23h6.57v3.27h-6.57v4.7h6.57v3.34h-10.05v-17.86ZM165.12,36.07h-3.71v17.86h3.5v-7.56h.32l4.14,7.56h3.83l-4.36-7.94c1.17-.4,2.04-1,2.62-1.79.58-.79.87-1.77.87-2.94s-.26-2.08-.79-2.9c-.53-.82-1.22-1.4-2.08-1.75s-2.31-.53-4.34-.53ZM166.01,43.05h-1.1v-3.67h.96c.93,0,1.57.06,1.92.19.35.13.63.33.84.62.21.29.31.63.31,1.02,0,.66-.21,1.13-.63,1.41-.42.28-1.19.43-2.3.43ZM191.82,39.21l-2.45,2.27c-1.67-1.71-3.54-2.56-5.63-2.56-1.76,0-3.24.58-4.44,1.75-1.2,1.17-1.81,2.61-1.81,4.31,0,1.19.27,2.25.8,3.17.53.92,1.29,1.65,2.26,2.18.98.53,2.06.79,3.25.79,1.02,0,1.95-.18,2.79-.55.84-.37,1.77-1.04,2.77-2.01l2.37,2.41c-1.36,1.29-2.64,2.18-3.85,2.68-1.21.5-2.59.75-4.14.75-2.86,0-5.2-.88-7.02-2.64-1.82-1.76-2.73-4.02-2.73-6.77,0-1.78.41-3.36,1.24-4.75.83-1.38,2.02-2.5,3.57-3.34,1.55-.84,3.21-1.26,5-1.26,1.52,0,2.98.31,4.39.93,1.4.62,2.62,1.51,3.63,2.65ZM196.99,36.07h-3.48v17.86h3.48v-17.86ZM208.49,35.62c2.61,0,4.84.91,6.72,2.74,1.87,1.83,2.81,4.06,2.81,6.69s-.92,4.81-2.77,6.62c-1.85,1.8-4.09,2.71-6.73,2.71s-5.06-.93-6.89-2.78c-1.83-1.85-2.74-4.06-2.74-6.61,0-1.71.43-3.28,1.28-4.71.85-1.43,2.02-2.57,3.51-3.41,1.49-.84,3.1-1.26,4.81-1.26ZM208.45,38.95c-1.7,0-3.13.58-4.3,1.72-1.16,1.15-1.74,2.61-1.74,4.38,0,1.97.73,3.54,2.19,4.69,1.14.9,2.44,1.35,3.91,1.35,1.66,0,3.08-.58,4.24-1.75,1.17-1.17,1.75-2.6,1.75-4.31s-.59-3.14-1.77-4.32c-1.18-1.18-2.61-1.77-4.3-1.77ZM89.08,83.64h-2.02l2.96,7.97h1.29l1.8-4.54,1.75,4.54h1.31l3-7.97h-2.03l-1.65,4.48-1.75-4.48h-1.23l-1.78,4.54-1.65-4.54ZM101.05,83.64h2.02l1.65,4.54,1.78-4.54h1.23l1.75,4.48,1.65-4.48h2.03l-3,7.97h-1.31l-1.75-4.54-1.8,4.54h-1.29l-2.96-7.97ZM117.05,83.64h-2.02l2.96,7.97h1.29l1.8-4.54,1.75,4.54h1.31l3-7.97h-2.03l-1.65,4.48-1.75-4.48h-1.23l-1.78,4.54-1.65-4.54ZM131.04,89.52c.33,0,.61.11.84.33.23.22.35.49.35.81s-.12.59-.35.81c-.23.22-.51.34-.84.34s-.61-.11-.84-.34c-.23-.22-.35-.5-.35-.81s.12-.59.35-.81.51-.33.84-.33ZM142.18,86.17l1.72-.92c-.41-.58-.94-1.03-1.59-1.34-.65-.32-1.38-.47-2.2-.47-.88,0-1.68.19-2.39.56-.71.37-1.27.88-1.66,1.53-.4.65-.6,1.36-.6,2.13,0,1.11.41,2.09,1.23,2.92.82.83,1.95,1.25,3.39,1.25,1.61,0,2.85-.56,3.73-1.67l-1.63-1.08c-.51.61-1.23.92-2.15.92-.75,0-1.35-.21-1.81-.64-.46-.43-.69-.98-.69-1.66s.24-1.27.71-1.72c.48-.45,1.1-.67,1.87-.67.42,0,.79.06,1.11.19.31.13.63.35.96.68ZM155.41,85.25l-1.72.92c-.32-.33-.64-.55-.96-.68-.32-.13-.68-.19-1.11-.19-.77,0-1.4.22-1.87.67-.48.45-.71,1.02-.71,1.72s.23,1.23.69,1.66c.46.43,1.06.64,1.81.64.92,0,1.64-.31,2.15-.92l1.63,1.08c-.88,1.11-2.12,1.67-3.73,1.67-1.45,0-2.58-.42-3.39-1.25s-1.23-1.8-1.23-2.92c0-.77.2-1.48.6-2.13.4-.65.95-1.16,1.67-1.53.71-.37,1.51-.56,2.39-.56.82,0,1.55.16,2.2.47s1.18.76,1.59,1.34ZM165.21,86.17l1.71-.92c-.41-.58-.94-1.03-1.59-1.34-.65-.32-1.38-.47-2.2-.47-.88,0-1.68.19-2.39.56-.71.37-1.27.88-1.66,1.53-.4.65-.6,1.36-.6,2.13,0,1.11.41,2.09,1.23,2.92s1.95,1.25,3.39,1.25c1.6,0,2.85-.56,3.73-1.67l-1.63-1.08c-.51.61-1.23.92-2.15.92-.75,0-1.35-.21-1.81-.64-.46-.43-.69-.98-.69-1.66s.24-1.27.71-1.72c.48-.45,1.1-.67,1.87-.67.42,0,.79.06,1.11.19.32.13.63.35.96.68ZM178.62,88.2h-6.62c.09.57.35,1.02.77,1.35.41.33.94.5,1.59.5.77,0,1.43-.26,1.99-.78l1.74.79c-.43.6-.95,1.04-1.55,1.32-.6.29-1.32.43-2.15.43-1.29,0-2.34-.39-3.15-1.18-.81-.79-1.22-1.78-1.22-2.96s.41-2.23,1.21-3.03c.81-.8,1.82-1.21,3.04-1.21,1.29,0,2.35.4,3.16,1.21.81.8,1.22,1.87,1.22,3.18v.38ZM175.76,85.54c.4.28.67.64.81,1.08h-4.47c.23-.49.48-.84.76-1.03.43-.31.94-.47,1.51-.47.53,0,.99.14,1.4.42ZM183.87,89.86c-.23-.22-.51-.33-.84-.33s-.61.11-.84.33c-.23.22-.35.49-.35.81s.12.59.35.81c.23.22.51.34.84.34s.61-.11.84-.34c.23-.22.35-.5.35-.81s-.11-.59-.35-.81ZM191.7,83.43c.78,0,1.5.19,2.19.56.68.38,1.21.89,1.6,1.53.38.64.57,1.34.57,2.09s-.19,1.46-.58,2.11c-.39.65-.91,1.17-1.57,1.54-.66.37-1.4.55-2.2.55-1.18,0-2.18-.41-3.02-1.22-.83-.81-1.25-1.8-1.25-2.96,0-1.25.47-2.28,1.41-3.11.83-.72,1.78-1.08,2.85-1.08ZM191.73,85.32c-.64,0-1.17.22-1.6.65-.43.43-.64.99-.64,1.66s.21,1.26.63,1.69c.42.43.95.64,1.6.64s1.18-.22,1.61-.65c.43-.43.64-.99.64-1.68s-.21-1.24-.63-1.67c-.42-.43-.96-.64-1.62-.64ZM200.64,83.64h-1.77v7.97h2.05v-3.61c0-1.11.1-1.86.32-2.24.22-.38.49-.57.81-.57.16,0,.35.06.6.18l.64-1.72c-.29-.14-.57-.21-.84-.21-.38,0-.73.1-1.04.31-.32.21-.57.51-.76.9v-1ZM211.98,83.64h2.05v6.83c0,1.35-.28,2.34-.84,2.98-.75.86-1.88,1.29-3.39,1.29-.81,0-1.48-.1-2.03-.29-.55-.2-1.01-.48-1.39-.86-.38-.38-.66-.84-.84-1.38h2.27c.2.22.46.39.78.51.32.11.69.17,1.13.17.55,0,1-.08,1.34-.25.34-.17.57-.38.71-.64.14-.26.21-.72.21-1.36-.36.35-.74.6-1.14.76-.4.15-.85.23-1.35.23-1.1,0-2.03-.39-2.79-1.16-.76-.77-1.14-1.75-1.14-2.93,0-1.27.4-2.28,1.21-3.05.73-.69,1.6-1.04,2.61-1.04.47,0,.92.08,1.34.25.42.17.84.45,1.26.83v-.88h0ZM209.85,85.3c-.65,0-1.19.21-1.61.63-.42.42-.63.95-.63,1.59s.22,1.21.65,1.63.98.64,1.63.64,1.17-.21,1.58-.62c.42-.42.62-.96.62-1.63s-.21-1.2-.63-1.62c-.42-.42-.96-.62-1.62-.62ZM219.7,89.86c-.23-.22-.51-.33-.84-.33s-.61.11-.84.33-.35.49-.35.81.11.59.35.81c.23.22.51.34.84.34s.61-.11.84-.34c.23-.22.35-.5.35-.81s-.12-.59-.35-.81ZM231.71,85.25l-1.71.92c-.32-.33-.64-.55-.96-.68-.32-.13-.68-.19-1.11-.19-.77,0-1.39.22-1.87.67-.48.45-.72,1.02-.72,1.72s.23,1.23.69,1.66c.46.43,1.06.64,1.81.64.92,0,1.64-.31,2.15-.92l1.63,1.08c-.88,1.11-2.12,1.67-3.73,1.67-1.44,0-2.58-.42-3.39-1.25-.82-.83-1.23-1.8-1.23-2.92,0-.77.2-1.48.6-2.13.4-.65.95-1.16,1.66-1.53.71-.37,1.51-.56,2.39-.56.82,0,1.55.16,2.2.47.65.32,1.18.76,1.59,1.34ZM241.23,84c-.68-.38-1.41-.56-2.19-.56-1.07,0-2.02.36-2.85,1.08-.94.83-1.41,1.87-1.41,3.11,0,1.16.42,2.15,1.25,2.96.83.81,1.84,1.22,3.02,1.22.8,0,1.53-.18,2.2-.55.66-.37,1.19-.88,1.57-1.54.39-.65.58-1.36.58-2.11s-.19-1.44-.57-2.09c-.38-.64-.91-1.15-1.6-1.53ZM237.48,85.96c.42-.43.96-.65,1.6-.65s1.19.21,1.62.64c.42.43.63.98.63,1.67s-.21,1.24-.64,1.68c-.43.43-.97.65-1.61.65s-1.18-.21-1.6-.64c-.42-.43-.63-.99-.63-1.69s.21-1.23.64-1.66Z"/>
</svg>