<svg width="60" height="48" viewBox="0 0 60 48" fill="none" xmlns="http://www.w3.org/2000/svg">
<path d="M57 3C58.5938 3 60 4.40625 60 6V42C60 43.6875 58.5938 45 57 45H3C1.3125 45 0 43.6875 0 42V6C0 4.40625 1.3125 3 3 3H57ZM16.5 30.75C18.6562 30.75 20.4375 28.875 20.4375 26.5312C20.4375 24.6562 19.2188 22.9688 17.5312 22.5L13.3125 21.1875C12.75 21.0938 12.4688 20.625 12.4688 20.0625C12.4688 19.3125 12.9375 18.75 13.5938 18.75H16.2188C16.5938 18.8438 17.0625 18.9375 17.4375 19.125C17.5312 19.2188 17.7188 19.3125 17.8125 19.3125C18 19.3125 18.1875 19.2188 18.375 19.0312L19.4062 18C19.5938 17.9062 19.6875 17.625 19.6875 17.4375C19.6875 17.25 19.5938 16.9688 19.4062 16.875C18.6562 16.3125 17.3438 15.8438 16.4062 15.8438V14.25C16.4062 13.875 16.125 13.5 15.6562 13.5H14.1562C13.7812 13.5 13.4062 13.875 13.4062 14.25V15.8438C11.25 15.8438 9.46875 17.7188 9.46875 20.0625C9.46875 21.9375 10.6875 23.5312 12.375 24.0938L16.5938 25.4062C17.1562 25.5 17.4375 25.9688 17.4375 26.5312C17.4375 27.2812 16.9688 27.75 16.3125 27.75H13.6875C13.3125 27.75 12.8438 27.6562 12.4688 27.4688C12.375 27.375 12.1875 27.2812 12.0938 27.2812C11.9062 27.2812 11.7188 27.375 11.5312 27.4688L10.5 28.5938C10.3125 28.6875 10.2188 28.9688 10.2188 29.1562C10.2188 29.3438 10.3125 29.625 10.5 29.7188C11.25 30.2812 12.5625 30.75 13.5 30.75V32.25C13.5 32.7188 13.7812 33 14.25 33H15.75C16.125 33 16.5 32.7188 16.5 32.25V30.75ZM39 29.25V27.75C39 27.375 38.625 27 38.25 27H27.75C27.2812 27 27 27.375 27 27.75V29.25C27 29.7188 27.2812 30 27.75 30H38.25C38.625 30 39 29.7188 39 29.25ZM54 29.25V27.75C54 27.375 53.625 27 53.25 27H45.75C45.2812 27 45 27.375 45 27.75V29.25C45 29.7188 45.2812 30 45.75 30H53.25C53.625 30 54 29.7188 54 29.25ZM54 20.25V18.75C54 18.375 53.625 18 53.25 18H27.75C27.2812 18 27 18.375 27 18.75V20.25C27 20.7188 27.2812 21 27.75 21H53.25C53.625 21 54 20.7188 54 20.25Z" fill="#C4E8FF"/>
<path d="M13.5 15.8438V14.25C13.5 13.875 13.7812 13.5 14.25 13.5H15.75C16.125 13.5 16.5 13.875 16.5 14.25V15.8438C17.3438 15.8438 18.6562 16.3125 19.4062 16.875C19.5938 16.9688 19.6875 17.25 19.6875 17.4375C19.6875 17.625 19.5938 17.9062 19.4062 18L18.375 19.0312C18.1875 19.2188 18 19.3125 17.8125 19.3125C17.7188 19.3125 17.5312 19.2188 17.4375 19.125C17.0625 18.9375 16.5938 18.8438 16.2188 18.75H13.5938C12.9375 18.75 12.4688 19.3125 12.4688 20.0625C12.4688 20.625 12.75 21.0938 13.3125 21.1875L17.5312 22.5C19.2188 22.9688 20.4375 24.6562 20.4375 26.5312C20.4375 28.875 18.6562 30.75 16.5 30.75V32.25C16.5 32.7188 16.125 33 15.75 33H14.25C13.7812 33 13.5 32.7188 13.5 32.25V30.75C12.5625 30.75 11.25 30.2812 10.5 29.7188C10.3125 29.625 10.2188 29.3438 10.2188 29.1562C10.2188 28.9688 10.3125 28.6875 10.5 28.5938L11.5312 27.4688C11.7188 27.375 11.9062 27.2812 12.0938 27.2812C12.1875 27.2812 12.375 27.375 12.4688 27.4688C12.8438 27.6562 13.3125 27.75 13.6875 27.75H16.3125C16.9688 27.75 17.4375 27.2812 17.4375 26.5312C17.4375 25.9688 17.1562 25.5 16.5938 25.4062L12.375 24.0938C10.6875 23.5312 9.46875 21.9375 9.46875 20.0625C9.46875 17.7188 11.25 15.8438 13.5 15.8438Z" fill="#007ECC"/>
</svg>
