<svg width="36" height="48" viewBox="0 0 36 48" fill="none" xmlns="http://www.w3.org/2000/svg">
<path d="M31.5 6C33.9375 6 36 8.0625 36 10.5V43.5C36 46.0312 33.9375 48 31.5 48H4.5C1.96875 48 0 46.0312 0 43.5V10.5C0 8.0625 1.96875 6 4.5 6H12C8.625 6 6 8.71875 6 12H30C30 8.71875 27.2812 6 24 6H31.5ZM6.09375 22.6875C6 22.7812 6 22.875 6 23.0625C6 23.1562 6 23.3438 6.09375 23.3438L9.5625 26.9062C9.65625 27 9.84375 27 9.9375 27C10.0312 27 10.2188 27 10.3125 26.9062L16.3125 20.9062C16.4062 20.8125 16.4062 20.7188 16.4062 20.5312C16.4062 20.4375 16.4062 20.25 16.3125 20.25L15.0938 19.0312C15 18.9375 14.9062 18.8438 14.7188 18.8438C14.625 18.8438 14.4375 18.9375 14.4375 19.0312L9.9375 23.4375L7.96875 21.4688C7.96875 21.375 7.78125 21.375 7.6875 21.375C7.5 21.375 7.40625 21.375 7.3125 21.4688L6.09375 22.6875ZM9 36.75C10.2188 36.75 11.25 35.8125 11.25 34.5938V34.5C11.25 33.2812 10.2188 32.25 9 32.25C7.6875 32.25 6.75 33.2812 6.75 34.5C6.75 35.8125 7.6875 36.75 9 36.75ZM30 35.25V33.75C30 33.375 29.625 33 29.25 33H15.75C15.2812 33 15 33.375 15 33.75V35.25C15 35.7188 15.2812 36 15.75 36H29.25C29.625 36 30 35.7188 30 35.25ZM30 26.25V24.75C30 24.375 29.5312 24 29.0625 24H17.4375L14.4375 27H29.0625C29.5312 27 30 26.7188 30 26.25Z" fill="#C4E8FF"/>
<path d="M9 32.25C10.2188 32.25 11.25 33.2812 11.25 34.5C11.25 35.8125 10.2188 36.75 9 36.75C7.6875 36.75 6.75 35.8125 6.75 34.5C6.75 33.2812 7.6875 32.25 9 32.25ZM15.0938 19.0312L16.3125 20.25C16.4062 20.25 16.4062 20.4375 16.4062 20.5312C16.4062 20.7188 16.4062 20.8125 16.3125 20.9062L10.3125 26.9062C10.2188 27 10.0312 27 9.9375 27C9.84375 27 9.65625 27 9.5625 26.9062L6.09375 23.3438C6 23.3438 6 23.1562 6 23.0625C6 22.875 6 22.7812 6.09375 22.6875L7.3125 21.4688C7.40625 21.375 7.5 21.375 7.6875 21.375C7.78125 21.375 7.96875 21.375 7.96875 21.4688L9.9375 23.4375L14.4375 19.0312C14.4375 18.9375 14.625 18.8438 14.7188 18.8438C14.9062 18.8438 15 18.9375 15.0938 19.0312ZM24 6C27.2812 6 30 8.71875 30 12H6C6 8.71875 8.625 6 12 6C12 2.71875 14.625 0 18 0C21.2812 0 24 2.71875 24 6ZM18 8.25C19.2188 8.25 20.25 7.3125 20.25 6.09375V6C20.25 4.78125 19.2188 3.75 18 3.75C16.6875 3.75 15.75 4.78125 15.75 6C15.75 7.3125 16.6875 8.25 18 8.25Z" fill="#007ECC"/>
</svg>
