<svg width="36" height="48" viewBox="0 0 36 48" fill="none" xmlns="http://www.w3.org/2000/svg">
<path d="M36 12V45.8438C35.9062 47.0625 34.9688 48 33.75 48H2.15625C0.9375 48 0 47.0625 0 45.8438V45.75V2.25C0 1.03125 0.9375 0 2.15625 0H2.25H24V10.5C24 11.3438 24.6562 12 25.5 12H36ZM18 18C14.625 18 12 20.7188 12 24C12 27.375 14.625 30 18 30C21.2812 30 24 27.375 24 24C24 20.7188 21.2812 18 18 18ZM28.5 40.2188V38.4375C28.5 35.4375 25.5938 33 22.125 33H21.6562C20.7188 33.4688 19.0312 33.8438 17.9062 33.8438C16.875 33.8438 15.1875 33.4688 14.25 33H13.7812C10.3125 33 7.5 35.4375 7.5 38.4375V40.2188C7.5 41.25 8.4375 42 9.5625 42H26.3438C27.5625 42 28.5 41.25 28.5 40.2188Z" fill="#C4E8FF"/>
<path d="M35.3438 9.84375C35.625 10.2188 36 10.9688 36 11.4375V12H25.5C24.6562 12 24 11.3438 24 10.5V0H24.5625C25.0312 0 25.7812 0.375 26.1562 0.65625L35.3438 9.84375ZM18 30C14.625 30 12 27.375 12 24C12 20.7188 14.625 18 18 18C21.2812 18 24 20.7188 24 24C24 27.375 21.2812 30 18 30ZM22.125 33C25.5938 33 28.5 35.4375 28.5 38.4375V40.2188C28.5 41.25 27.4688 42 26.3438 42H9.5625C8.4375 42 7.5 41.25 7.5 40.2188V38.4375C7.5 35.4375 10.3125 33 13.7812 33H14.25C15.1875 33.4688 16.875 33.8438 17.9062 33.8438C19.0312 33.8438 20.7188 33.4688 21.6562 33H22.125Z" fill="#007ECC"/>
</svg>
