<svg width="48" height="48" viewBox="0 0 48 48" fill="none" xmlns="http://www.w3.org/2000/svg">
<path d="M43.2188 12C45.8438 12 48 14.0625 48 16.5V40.5C48 43.0312 45.8438 45 43.2188 45H6C2.625 45 0 42.375 0 39V9C0 10.6875 1.3125 12 3 12H43.2188ZM39 31.5C40.5938 31.5 42 30.1875 42 28.5C42 26.9062 40.5938 25.5 39 25.5C37.3125 25.5 36 26.9062 36 28.5C36 30.1875 37.3125 31.5 39 31.5Z" fill="#C4E8FF"/>
<path d="M39 25.5C40.5938 25.5 42 26.9062 42 28.5C42 30.1875 40.5938 31.5 39 31.5C37.3125 31.5 36 30.1875 36 28.5C36 26.9062 37.3125 25.5 39 25.5ZM40.5 3C42.9375 3 45 5.0625 45 7.5C45 8.34375 44.25 9 43.5 9H7.5C6.65625 9 6 9.75 6 10.5C6 11.3438 6.65625 12 7.5 12H3C1.3125 12 0 10.6875 0 9C0 5.71875 2.625 3 6 3H40.5Z" fill="#007ECC"/>
</svg>
