<svg width="54" height="48" viewBox="0 0 54 48" fill="none" xmlns="http://www.w3.org/2000/svg">
<path d="M42 18V21H18C16.3125 21 15 22.4062 15 24V45H3C1.3125 45 0 43.6875 0 42V18C0 16.4062 1.3125 15 3 15H12V9C12 4.125 16.0312 0 21 0C25.875 0 30 4.125 30 9V15H39C40.5938 15 42 16.4062 42 18ZM25.5 15V9C25.5 6.5625 23.4375 4.5 21 4.5C18.4688 4.5 16.5 6.5625 16.5 9V15H25.5ZM44.25 30C44.625 30 45 30.375 45 30.75V33C44.9062 37.9688 40.875 42.0938 35.9062 42.0938C35.625 42.0938 35.0625 42 34.7812 42C30.2812 41.3438 27 37.3125 27 32.7188V30.75C27 30.375 27.2812 30 27.75 30H29.25C29.625 30 30 30.375 30 30.75V32.8125C30 35.9062 32.25 38.7188 35.3438 39C35.5312 39 35.8125 39.0938 35.9062 39.0938C39.2812 39.0938 41.9062 36.375 42 33V30.75C42 30.375 42.2812 30 42.75 30H44.25Z" fill="#C4E8FF"/>
<path d="M51 24C52.5938 24 54 25.4062 54 27V45C54 46.6875 52.5938 48 51 48H21C19.3125 48 18 46.6875 18 45V27C18 25.4062 19.3125 24 21 24H51ZM45 33V30.75C45 30.375 44.625 30 44.25 30H42.75C42.2812 30 42 30.375 42 30.75V33C41.9062 36.375 39.2812 39.0938 35.9062 39.0938C35.8125 39.0938 35.5312 39 35.3438 39C32.25 38.7188 30 35.9062 30 32.8125V30.75C30 30.375 29.625 30 29.25 30H27.75C27.2812 30 27 30.375 27 30.75V32.7188C27 37.3125 30.2812 41.3438 34.7812 42C35.0625 42 35.625 42.0938 35.9062 42.0938C40.875 42.0938 44.9062 37.9688 45 33Z" fill="#007ECC"/>
</svg>
