<svg width="49" height="48" viewBox="0 0 49 48" fill="none" xmlns="http://www.w3.org/2000/svg">
<path d="M49 12V45.8438C48.9062 47.0625 47.9688 48 46.75 48H22V39.4688C23.4062 38.9062 24.9062 37.125 25.2812 35.625C25.2812 35.5312 25.375 35.3438 25.375 35.25C25.4688 35.0625 25.4688 34.7812 25.5625 34.5938C25.6562 34.5 25.8438 34.3125 26.0312 34.125L26.3125 33.8438C27.25 32.9062 28 31.125 28 29.8125C28 29.3438 27.9062 28.6875 27.8125 28.3125C27.7188 28.125 27.7188 28.0312 27.7188 27.9375C27.625 27.6562 27.5312 27.375 27.5312 27.2812C27.5312 27.0938 27.625 26.8125 27.7188 26.625C27.7188 26.4375 27.7188 26.3438 27.8125 26.25C27.9062 25.7812 28 25.125 28 24.75C28 23.4375 27.25 21.5625 26.3125 20.625L26.0312 20.4375C25.8438 20.25 25.6562 20.0625 25.5625 19.875C25.5625 19.7812 25.4688 19.5 25.375 19.2188C25.375 19.125 25.375 19.0312 25.2812 18.8438C24.8125 17.1562 23.0312 15.2812 21.25 14.8125L20.875 14.7188C20.6875 14.625 20.4062 14.5312 20.2188 14.5312C20.125 14.4375 19.9375 14.25 19.75 14.0625C19.75 13.9688 19.6562 13.875 19.5625 13.7812C18.625 12.8438 16.75 12.0938 15.4375 12.0938C15.0625 12.0938 14.4062 12.1875 13.9375 12.2812L13.5625 12.375C13.375 12.375 13.0938 12.4688 13 12.5625V2.25C13 1.03125 13.9375 0.09375 15.25 0H37V10.5C37 11.3438 37.6562 12 38.5 12H49Z" fill="#C4E8FF"/>
<path d="M48.3438 9.84375C48.625 10.2188 49 10.9688 49 11.4375V12H38.5C37.6562 12 37 11.3438 37 10.5V0H37.5625C38.0312 0 38.7812 0.375 39.1562 0.65625L48.3438 9.84375ZM24.9062 25.5C24.3438 27.375 24.3438 27.0938 24.9062 29.0625C24.9062 29.25 25 29.625 25 29.8125C25 30.4688 24.625 31.3125 24.1562 31.7812C22.75 33.1875 22.9375 32.9062 22.375 34.875C22.1875 35.7188 21.25 36.6562 20.4062 36.8438C19.0938 37.2188 19.375 37.125 19 37.3125V48L13 45L7 48V37.3125C6.53125 37.125 6.8125 37.2188 5.5 36.8438C4.65625 36.6562 3.71875 35.7188 3.53125 34.875C3.0625 32.9062 3.15625 33.1875 1.75 31.7812C1.28125 31.3125 0.90625 30.375 0.90625 29.8125C0.90625 29.625 1 29.25 1.09375 29.0625C1.5625 27.0938 1.5625 27.375 1.09375 25.5C1 25.2188 0.90625 24.9375 0.90625 24.75C0.90625 24.0938 1.28125 23.25 1.75 22.7812C3.15625 21.375 3.0625 21.5625 3.53125 19.5938C3.71875 18.75 4.65625 17.9062 5.5 17.625C7.375 17.1562 7.09375 17.25 8.5 15.8438C8.96875 15.375 9.8125 15 10.4688 15C10.6562 15 11.0312 15.0938 11.2188 15.0938C13.0938 15.6562 12.8125 15.6562 14.6875 15.0938C14.875 15.0938 15.25 15.0938 15.4375 15.0938C16.0938 15.0938 16.9375 15.375 17.4062 15.8438C18.8125 17.25 18.5312 17.1562 20.4062 17.625C21.25 17.9062 22.1875 18.75 22.375 19.5938C22.9375 21.5625 22.75 21.375 24.1562 22.7812C24.625 23.25 25 24.0938 25 24.75C25 24.9375 24.9062 25.2188 24.9062 25.5ZM13 33C16.2812 33 19 30.375 19 27C19 23.7188 16.2812 21 13 21C9.625 21 7 23.7188 7 27C7 30.375 9.625 33 13 33Z" fill="#007ECC"/>
</svg>
