<svg width="62" height="48" viewBox="0 0 62 48" fill="none" xmlns="http://www.w3.org/2000/svg">
<path d="M53.2812 26.9062C53.75 26.9062 54.4062 26.7188 54.875 26.625V45C54.875 46.6875 53.4688 48 51.875 48H9.875C8.1875 48 6.875 46.6875 6.875 45V26.625C7.25 26.7188 7.90625 26.9062 8.375 26.9062C8.84375 27 9.59375 27 10.0625 27C10.8125 27 12.0312 26.9062 12.7812 26.7188V36H48.875V26.7188C49.625 26.9062 50.8438 27 51.5938 27C52.0625 27 52.8125 27 53.2812 26.9062Z" fill="#C4E8FF"/>
<path d="M58.4375 11.1562C61.5312 16.2188 58.7188 23.1562 52.9062 23.9062C52.5312 24 51.9688 24 51.5938 24C49.25 24 46.1562 22.6875 44.6562 20.9062C43.1562 22.6875 40.0625 24 37.7188 24C35.75 24 33.0312 22.9688 31.625 21.6562C31.3438 21.4688 31.0625 21.1875 30.7812 20.9062C29.2812 22.6875 26.1875 24 23.9375 24C21.9688 24 19.1562 22.9688 17.75 21.6562C17.4688 21.4688 17.1875 21.1875 17 20.9062C15.5 22.6875 12.3125 24 10.0625 24C9.6875 24 9.125 24 8.75 23.9062C2.9375 23.1562 0.125 16.2188 3.3125 11.1562L9.3125 1.40625C9.875 0.65625 11 0 11.8438 0H11.9375H49.8125C50.6562 0.09375 51.7812 0.65625 52.3438 1.40625L58.4375 11.1562Z" fill="#007ECC"/>
</svg>
