<svg width="42" height="48" viewBox="0 0 42 48" fill="none" xmlns="http://www.w3.org/2000/svg">
<path d="M9 36C7.5 36 6 37.2188 6 39C6 40.875 7.125 42 9 42H39.75C40.9688 42 42 43.0312 42 44.25V45.75C42 47.0625 40.9688 48 39.75 48H9C4.03125 48 0 43.9688 0 39V9C0 4.125 4.03125 0 9 0H39C40.5938 0 42 1.40625 42 3V33.75C42 35.0625 40.9688 36 39.75 36H9ZM12 12.5625V14.4375C12 14.8125 12.1875 15 12.5625 15H32.4375C32.7188 15 33 14.8125 33 14.4375V12.5625C33 12.2812 32.7188 12 32.4375 12H12.5625C12.1875 12 12 12.2812 12 12.5625ZM12 18.5625V20.4375C12 20.8125 12.1875 21 12.5625 21H32.4375C32.7188 21 33 20.8125 33 20.4375V18.5625C33 18.2812 32.7188 18 32.4375 18H12.5625C12.1875 18 12 18.2812 12 18.5625Z" fill="#C4E8FF"/>
<path d="M9 42C7.125 42 6 40.875 6 39C6 37.2188 7.5 36 9 36H38.9062C38.7188 37.5938 38.7188 40.5938 38.9062 42H9Z" fill="#007ECC"/>
</svg>
