<svg width="73" height="48" viewBox="0 0 73 48" fill="none" xmlns="http://www.w3.org/2000/svg">
<path d="M52.875 35.3438L38.625 46.6875C37.7812 47.4375 36.0938 48 34.875 48H1.5C0.65625 48 0 47.3438 0 46.5V37.5C0 36.75 0.65625 36 1.5 36H6.65625L10.9688 32.5312C12.6562 31.125 15.75 30.0938 18 30H33C34.5938 30 35.9062 31.4062 36 33V33.0938C36 33.1875 35.9062 33.375 35.9062 33.5625C35.7188 35.0625 34.3125 36 32.8125 36H25.5C24.6562 36 24 36.75 24 37.5C24 38.3438 24.6562 39 25.5 39H36.5625C37.6875 39 39.375 38.4375 40.3125 37.6875L48.9375 30.8438C50.1562 29.9062 51.8438 29.8125 52.9688 30.8438C53.5312 31.3125 54 32.3438 54 33.0938C54 33.8438 53.4375 34.875 52.875 35.3438Z" fill="#C4E8FF"/>
<path d="M30.8438 20.9062V22.5C30.8438 23.3438 30.0938 24 29.25 24H27.5625C26.7188 24 25.9688 23.3438 25.9688 22.5V20.9062C25.0312 20.8125 23.5312 20.3438 22.7812 19.7812C22.5 19.5938 22.2188 19.2188 22.2188 18.9375C22.2188 18.75 22.3125 18.4688 22.4062 18.375C22.4062 18.2812 22.5 18.1875 22.5938 18.0938L24.375 16.4062C24.75 16.125 25.3125 16.0312 25.7812 16.2188C26.0625 16.4062 26.5312 16.5 26.8125 16.5H30.1875C30.6562 16.5 31.0312 16.125 31.0312 15.6562C31.0312 15.375 30.75 15 30.375 14.9062L25.3125 13.5938C23.0625 12.9375 21.2812 11.25 21 9.09375C20.625 6.09375 22.875 3.5625 25.9688 3.1875V1.5C25.9688 0.75 26.7188 0 27.5625 0H29.25C30.0938 0 30.8438 0.75 30.8438 1.5V3.1875C31.7812 3.28125 33.1875 3.75 34.0312 4.3125C34.3125 4.5 34.5938 4.875 34.5938 5.15625C34.5938 5.4375 34.4062 5.8125 34.2188 6L32.4375 7.6875C32.0625 7.96875 31.5 8.0625 31.0312 7.875C30.75 7.6875 30.2812 7.59375 30 7.59375H26.625C26.1562 7.59375 25.7812 7.96875 25.7812 8.4375C25.7812 8.71875 26.0625 9.09375 26.4375 9.1875L31.5 10.5C33.75 11.1562 35.5312 12.8438 35.8125 15C36.1875 18 33.8438 20.5312 30.8438 20.9062Z" fill="#007ECC"/>
</svg>
