<svg width="81" height="50" viewBox="0 0 81 50" fill="none" xmlns="http://www.w3.org/2000/svg">
<path fill-rule="evenodd" clip-rule="evenodd" d="M46.1367 20.309C48.1615 20.309 49.6632 20.8516 50.7677 21.5739C51.077 21.7757 51.4891 21.5663 51.5059 21.1988C51.516 20.9703 51.6869 20.7858 51.9072 20.7512L51.9823 20.7454H56.197C56.4523 20.7454 56.657 20.9434 56.6734 21.1878L56.6725 21.2623L56.6223 21.8149C56.5084 23.0097 56.4648 24.3634 56.4609 26.584L56.4606 37.9883C56.4606 42.573 55.4974 45.4978 53.3309 47.4616C50.7853 49.6699 47.3246 50 45.4837 50C42.8831 50 40.2862 49.3804 38.6234 48.3898L38.4204 48.264L38.0867 48.0488C37.9274 47.9463 37.8461 47.7612 37.8744 47.5792L37.8933 47.5017L39.1169 43.8271C39.2066 43.558 39.5086 43.4319 39.7603 43.5417L39.8275 43.5776L40.3723 43.9248C41.0212 44.3436 42.8354 45.3068 45.5978 45.3068C48.7448 45.3068 50.4724 43.8919 50.866 40.9906C50.9189 40.6002 50.4942 40.3183 50.1532 40.5191C48.8639 41.2743 47.2983 41.6967 45.5978 41.6967C40.2731 41.6967 36.2508 37.2539 36.2508 31.3723C36.2508 24.1128 41.2286 20.309 46.1367 20.309ZM10.4522 12.0472C10.8522 11.9409 11.6124 11.7775 11.9569 12.0701C11.9902 12.085 12.0106 12.1156 12.0311 12.148C12.3237 12.5081 12.464 13.0681 12.6571 13.4934C12.8813 14.0057 13.1415 14.5085 13.3733 15.023C13.6224 15.5897 13.8715 16.146 14.1206 16.7015C14.9104 18.4917 14.6689 18.8198 12.7068 19.3433C11.4192 19.6944 10.085 19.7723 8.91146 20.6734C6.89389 22.2309 6.91609 24.2452 9.2014 25.457C11.1013 26.4729 13.035 27.4267 15.0059 28.3207C21.3885 31.1997 22.4439 41.0742 17.7175 45.5899C14.7475 48.4176 11.3975 49.7837 7.45334 49.9921C6.63903 50.038 6.1635 49.9107 5.93706 48.861C5.6076 47.3526 5.31189 45.7965 4.81993 44.3601C4.27913 42.8067 4.9114 42.768 6.07958 42.6807L6.54307 42.6503C8.70735 42.5053 10.8769 42.2827 12.5035 40.4665C14.1019 38.6907 13.7689 36.9123 11.897 35.3927C10.5928 34.3292 9.09778 33.7262 7.6028 33.1538L6.85619 32.8682C6.48377 32.7246 6.11335 32.5785 5.74791 32.4232C1.12135 30.4804 -0.248856 26.1844 0.0357523 22.4289C0.400282 17.9205 3.06211 14.7646 7.31126 13.1896C8.34091 12.7984 9.39055 12.3362 10.4522 12.0472ZM68.3744 20.309C74.5211 20.309 78.8183 24.7279 78.8183 31.0499C78.8183 38.6116 73.4027 42.1107 68.2938 42.2027L68.0869 42.2046H68.0388C65.174 42.2046 62.5393 41.1607 60.6509 39.2609C58.6846 37.2844 57.643 34.5749 57.643 31.4137C57.643 24.8797 62.0615 20.309 68.3744 20.309ZM26.4807 20.7448C26.9029 20.7448 27.2498 21.0625 27.2942 21.4703L27.299 21.5589V40.9454C27.299 41.3649 26.9802 41.7102 26.5699 41.7544L26.4807 41.7591H22.5743C22.1525 41.7591 21.8052 41.4418 21.7608 41.0341L21.756 40.9454V21.5589C21.756 21.1395 22.0751 20.7938 22.4851 20.7496L22.5743 20.7448H26.4807ZM34.5158 20.7448C34.7768 20.7448 34.9933 20.9368 35.0305 21.1859L35.0361 21.2622V41.2426C35.0361 41.5018 34.8434 41.7166 34.5926 41.7535L34.5158 41.7591H30.0184C29.7574 41.7591 29.5409 41.5678 29.5037 41.3189L29.4981 41.2426V21.5589C29.4981 21.1395 29.8172 20.7938 30.2272 20.7496L30.3164 20.7448H34.5158ZM68.2508 24.8797C64.776 24.8797 63.2326 28.0931 63.2326 31.2962C63.2326 34.886 65.2069 37.5196 67.9591 37.6256L68.1321 37.6289H68.1688C71.0567 37.6289 73.1566 34.9122 73.1566 31.1755C73.1566 29.0005 72.1228 24.8797 68.2508 24.8797ZM46.706 24.9603C43.7497 24.9603 41.84 27.4118 41.84 31.2156C41.84 33.9265 43.1057 37.0818 46.6657 37.0818C48.4654 37.0818 50.0021 36.0143 50.6134 34.3644L50.6753 34.1854L50.6902 34.1404C50.8155 33.8023 50.8966 33.3436 50.915 32.8447L50.9189 32.6287V29.2104C50.9189 28.7348 50.8812 28.3881 50.8028 28.1098L50.7668 27.9945L50.7632 27.9738C50.1708 26.0856 48.6497 24.9603 46.706 24.9603ZM47.732 9.94204L47.7347 9.95441C58.3293 8.43955 63.7514 15.5977 63.7514 15.5977C63.2456 15.065 78.776 12.5248 81 25.4488C78.776 15.2316 66.6507 15.0533 63.2664 16.6704C57.0237 8.86645 48.1662 10.4975 46.0183 10.9397C45.0791 5.74217 40.2434 0.333906 31.6794 0.996318C17.3019 2.11985 16.3804 16.9131 16.3804 16.9131C15.2713 15.1452 14.6486 13.0773 13.5396 11.0721C13.3211 10.6629 14.045 11.2857 14.782 11.9697L14.9921 12.1659C15.5839 12.7219 16.1263 13.2575 16.1263 13.2575C17.8291 1.24129 31.1717 0.0186867 31.1717 0.0186867C45.3233 -0.4897 47.6448 9.54062 47.732 9.94204ZM24.5235 12.7983C26.3811 12.7983 27.7732 14.1664 27.7732 15.9789C27.7732 17.7666 26.4536 19.1271 24.6554 19.2079L24.4855 19.2117H24.4397C22.6025 19.2117 21.224 17.8225 21.224 15.9789C21.224 14.1664 22.6382 12.7983 24.5235 12.7983ZM32.2661 12.7983C34.1188 12.7983 35.5217 14.1664 35.5217 15.9789C35.5217 17.7666 34.1953 19.1271 32.3909 19.2079L32.2204 19.2117H32.1823C30.3528 19.2117 28.9729 17.8225 28.9729 15.9789C28.9729 14.1664 30.3831 12.7983 32.2661 12.7983Z" fill="white"/>
</svg>
