<svg width="32" height="32" viewBox="0 0 32 32" fill="none" xmlns="http://www.w3.org/2000/svg">
<path d="M10.3125 12.3594C10.0664 12.3594 9.875 12.168 9.875 11.9219V10.8281C9.875 10.6094 10.0664 10.3906 10.3125 10.3906H21.6875C21.9062 10.3906 22.125 10.6094 22.125 10.8281V11.9219C22.125 12.168 21.9062 12.3594 21.6875 12.3594H10.3125ZM10.3125 16.7344C10.0664 16.7344 9.875 16.543 9.875 16.2969V15.2031C9.875 14.9844 10.0664 14.7656 10.3125 14.7656H21.6875C21.9062 14.7656 22.125 14.9844 22.125 15.2031V16.2969C22.125 16.543 21.9062 16.7344 21.6875 16.7344H10.3125ZM10.3125 21.1094C10.0664 21.1094 9.875 20.918 9.875 20.6719V19.5781C9.875 19.3594 10.0664 19.1406 10.3125 19.1406H21.6875C21.9062 19.1406 22.125 19.3594 22.125 19.5781V20.6719C22.125 20.918 21.9062 21.1094 21.6875 21.1094H10.3125Z" fill="#009DFF"/>
</svg>
