<svg width="20" height="20" viewBox="0 0 20 20" fill="none" xmlns="http://www.w3.org/2000/svg">
<circle cx="10" cy="10" r="9.5" fill="white" stroke="#D8D8D8"/>
<path d="M10.1758 5.79167C11.6523 5.79167 13.252 6.96941 13.252 8.4987C13.252 10.5378 11.0547 10.5729 11.0547 11.3288V11.4167C11.0547 11.6628 10.8613 11.8385 10.6328 11.8385H9.34961C9.12109 11.8385 8.92773 11.6628 8.92773 11.4167V11.2585C8.92773 10.1686 9.75391 9.72917 10.3867 9.37761C10.9141 9.07878 11.248 8.88542 11.248 8.48112C11.248 7.95378 10.5801 7.6198 10.0352 7.6198C9.34961 7.6198 9.01562 7.9362 8.57617 8.48112C8.43555 8.65691 8.17187 8.69206 7.99609 8.55144L7.24023 7.97136C7.04687 7.84831 7.01172 7.58464 7.13476 7.40886C7.85547 6.37175 8.76953 5.79167 10.1758 5.79167ZM10 12.3659C10.668 12.3659 11.2129 12.9108 11.2129 13.5788C11.2129 14.2467 10.668 14.7917 10 14.7917C9.31445 14.7917 8.76953 14.2467 8.76953 13.5788C8.76953 12.9108 9.31445 12.3659 10 12.3659Z" fill="#009DFF"/>
</svg>
